<?xml version="1.0" encoding="utf-8" standalone="no"?>
<!DOCTYPE svg PUBLIC "-//W3C//DTD SVG 1.1//EN"
  "http://www.w3.org/Graphics/SVG/1.1/DTD/svg11.dtd">
<svg height="345.6pt" version="1.1" viewBox="0 0 460.8 345.6" width="460.8pt" xmlns="http://www.w3.org/2000/svg" xmlns:xlink="http://www.w3.org/1999/xlink">
 <metadata>
  <rdf:RDF xmlns:cc="http://creativecommons.org/ns#" xmlns:dc="http://purl.org/dc/elements/1.1/" xmlns:rdf="http://www.w3.org/1999/02/22-rdf-syntax-ns#">
   <cc:Work>
    <dc:type rdf:resource="http://purl.org/dc/dcmitype/StillImage"/>
    <dc:date>2022-02-20T12:31:48.193182</dc:date>
    <dc:format>image/svg+xml</dc:format>
    <dc:creator>
     <cc:Agent>
      <dc:title>Matplotlib v3.4.3, https://matplotlib.org/</dc:title>
     </cc:Agent>
    </dc:creator>
   </cc:Work>
  </rdf:RDF>
 </metadata>
 <defs>
  <style type="text/css">*{stroke-linecap:butt;stroke-linejoin:round;}</style>
 </defs>
 <g id="figure_1">
  <g id="patch_1">
   <path d="M 0 345.6 
L 460.8 345.6 
L 460.8 0 
L 0 0 
z
" style="fill:none;"/>
  </g>
  <g id="axes_1">
   <g id="patch_2">
    <path d="M 57.6 307.584 
L 414.72 307.584 
L 414.72 41.472 
L 57.6 41.472 
z
" style="fill:none;"/>
   </g>
   <g id="matplotlib.axis_1">
    <g id="xtick_1">
     <g id="line2d_1">
      <path clip-path="url(#p30bcd19251)" d="M 73.829484 307.584 
L 73.829484 41.472 
" style="fill:none;stroke:#b0b0b0;stroke-linecap:square;stroke-width:0.8;"/>
     </g>
     <g id="line2d_2">
      <defs>
       <path d="M 0 0 
L 0 3.5 
" id="m290fbde1d7" style="stroke:#000000;stroke-width:0.8;"/>
      </defs>
      <g>
       <use style="stroke:#000000;stroke-width:0.8;" x="73.829484" xlink:href="#m290fbde1d7" y="307.584"/>
      </g>
     </g>
     <g id="text_1">
      <!-- 0.000 -->
      <g transform="translate(59.515421 322.182437)scale(0.1 -0.1)">
       <defs>
        <path d="M 2034 219 
Q 2513 219 2750 744 
Q 2988 1269 2988 2328 
Q 2988 3391 2750 3916 
Q 2513 4441 2034 4441 
Q 1556 4441 1318 3916 
Q 1081 3391 1081 2328 
Q 1081 1269 1318 744 
Q 1556 219 2034 219 
z
M 2034 -91 
Q 1275 -91 848 546 
Q 422 1184 422 2328 
Q 422 3475 848 4112 
Q 1275 4750 2034 4750 
Q 2797 4750 3222 4112 
Q 3647 3475 3647 2328 
Q 3647 1184 3222 546 
Q 2797 -91 2034 -91 
z
" id="DejaVuSerif-30" transform="scale(0.015625)"/>
        <path d="M 603 325 
Q 603 500 722 622 
Q 841 744 1019 744 
Q 1191 744 1312 622 
Q 1434 500 1434 325 
Q 1434 153 1312 31 
Q 1191 -91 1019 -91 
Q 841 -91 722 29 
Q 603 150 603 325 
z
" id="DejaVuSerif-2e" transform="scale(0.015625)"/>
       </defs>
       <use xlink:href="#DejaVuSerif-30"/>
       <use x="63.623047" xlink:href="#DejaVuSerif-2e"/>
       <use x="95.410156" xlink:href="#DejaVuSerif-30"/>
       <use x="159.033203" xlink:href="#DejaVuSerif-30"/>
       <use x="222.65625" xlink:href="#DejaVuSerif-30"/>
      </g>
     </g>
    </g>
    <g id="xtick_2">
     <g id="line2d_3">
      <path clip-path="url(#p30bcd19251)" d="M 138.696175 307.584 
L 138.696175 41.472 
" style="fill:none;stroke:#b0b0b0;stroke-linecap:square;stroke-width:0.8;"/>
     </g>
     <g id="line2d_4">
      <g>
       <use style="stroke:#000000;stroke-width:0.8;" x="138.696175" xlink:href="#m290fbde1d7" y="307.584"/>
      </g>
     </g>
     <g id="text_2">
      <!-- 0.001 -->
      <g transform="translate(124.382113 322.182437)scale(0.1 -0.1)">
       <defs>
        <path d="M 909 0 
L 909 331 
L 1722 331 
L 1722 4213 
L 781 3603 
L 781 4013 
L 1919 4750 
L 2350 4750 
L 2350 331 
L 3163 331 
L 3163 0 
L 909 0 
z
" id="DejaVuSerif-31" transform="scale(0.015625)"/>
       </defs>
       <use xlink:href="#DejaVuSerif-30"/>
       <use x="63.623047" xlink:href="#DejaVuSerif-2e"/>
       <use x="95.410156" xlink:href="#DejaVuSerif-30"/>
       <use x="159.033203" xlink:href="#DejaVuSerif-30"/>
       <use x="222.65625" xlink:href="#DejaVuSerif-31"/>
      </g>
     </g>
    </g>
    <g id="xtick_3">
     <g id="line2d_5">
      <path clip-path="url(#p30bcd19251)" d="M 203.562866 307.584 
L 203.562866 41.472 
" style="fill:none;stroke:#b0b0b0;stroke-linecap:square;stroke-width:0.8;"/>
     </g>
     <g id="line2d_6">
      <g>
       <use style="stroke:#000000;stroke-width:0.8;" x="203.562866" xlink:href="#m290fbde1d7" y="307.584"/>
      </g>
     </g>
     <g id="text_3">
      <!-- 0.002 -->
      <g transform="translate(189.248804 322.182437)scale(0.1 -0.1)">
       <defs>
        <path d="M 819 3553 
L 469 3553 
L 469 4384 
Q 803 4563 1142 4656 
Q 1481 4750 1806 4750 
Q 2534 4750 2956 4397 
Q 3378 4044 3378 3438 
Q 3378 2753 2422 1800 
Q 2347 1728 2309 1691 
L 1131 513 
L 3078 513 
L 3078 1088 
L 3444 1088 
L 3444 0 
L 434 0 
L 434 341 
L 1850 1753 
Q 2319 2222 2519 2614 
Q 2719 3006 2719 3438 
Q 2719 3909 2473 4175 
Q 2228 4441 1797 4441 
Q 1350 4441 1106 4219 
Q 863 3997 819 3553 
z
" id="DejaVuSerif-32" transform="scale(0.015625)"/>
       </defs>
       <use xlink:href="#DejaVuSerif-30"/>
       <use x="63.623047" xlink:href="#DejaVuSerif-2e"/>
       <use x="95.410156" xlink:href="#DejaVuSerif-30"/>
       <use x="159.033203" xlink:href="#DejaVuSerif-30"/>
       <use x="222.65625" xlink:href="#DejaVuSerif-32"/>
      </g>
     </g>
    </g>
    <g id="xtick_4">
     <g id="line2d_7">
      <path clip-path="url(#p30bcd19251)" d="M 268.429557 307.584 
L 268.429557 41.472 
" style="fill:none;stroke:#b0b0b0;stroke-linecap:square;stroke-width:0.8;"/>
     </g>
     <g id="line2d_8">
      <g>
       <use style="stroke:#000000;stroke-width:0.8;" x="268.429557" xlink:href="#m290fbde1d7" y="307.584"/>
      </g>
     </g>
     <g id="text_4">
      <!-- 0.003 -->
      <g transform="translate(254.115495 322.182437)scale(0.1 -0.1)">
       <defs>
        <path d="M 622 4469 
Q 988 4606 1323 4678 
Q 1659 4750 1953 4750 
Q 2638 4750 3022 4454 
Q 3406 4159 3406 3634 
Q 3406 3213 3140 2930 
Q 2875 2647 2388 2547 
Q 2963 2466 3280 2130 
Q 3597 1794 3597 1259 
Q 3597 606 3158 257 
Q 2719 -91 1894 -91 
Q 1528 -91 1179 -12 
Q 831 66 488 225 
L 488 1131 
L 838 1131 
Q 869 681 1141 450 
Q 1413 219 1906 219 
Q 2384 219 2661 495 
Q 2938 772 2938 1253 
Q 2938 1803 2653 2086 
Q 2369 2369 1819 2369 
L 1522 2369 
L 1522 2688 
L 1678 2688 
Q 2225 2688 2498 2914 
Q 2772 3141 2772 3597 
Q 2772 4006 2547 4223 
Q 2322 4441 1900 4441 
Q 1478 4441 1245 4241 
Q 1013 4041 972 3647 
L 622 3647 
L 622 4469 
z
" id="DejaVuSerif-33" transform="scale(0.015625)"/>
       </defs>
       <use xlink:href="#DejaVuSerif-30"/>
       <use x="63.623047" xlink:href="#DejaVuSerif-2e"/>
       <use x="95.410156" xlink:href="#DejaVuSerif-30"/>
       <use x="159.033203" xlink:href="#DejaVuSerif-30"/>
       <use x="222.65625" xlink:href="#DejaVuSerif-33"/>
      </g>
     </g>
    </g>
    <g id="xtick_5">
     <g id="line2d_9">
      <path clip-path="url(#p30bcd19251)" d="M 333.296248 307.584 
L 333.296248 41.472 
" style="fill:none;stroke:#b0b0b0;stroke-linecap:square;stroke-width:0.8;"/>
     </g>
     <g id="line2d_10">
      <g>
       <use style="stroke:#000000;stroke-width:0.8;" x="333.296248" xlink:href="#m290fbde1d7" y="307.584"/>
      </g>
     </g>
     <g id="text_5">
      <!-- 0.004 -->
      <g transform="translate(318.982186 322.182437)scale(0.1 -0.1)">
       <defs>
        <path d="M 2234 1581 
L 2234 4063 
L 641 1581 
L 2234 1581 
z
M 3609 0 
L 1484 0 
L 1484 331 
L 2234 331 
L 2234 1247 
L 197 1247 
L 197 1588 
L 2241 4750 
L 2859 4750 
L 2859 1581 
L 3750 1581 
L 3750 1247 
L 2859 1247 
L 2859 331 
L 3609 331 
L 3609 0 
z
" id="DejaVuSerif-34" transform="scale(0.015625)"/>
       </defs>
       <use xlink:href="#DejaVuSerif-30"/>
       <use x="63.623047" xlink:href="#DejaVuSerif-2e"/>
       <use x="95.410156" xlink:href="#DejaVuSerif-30"/>
       <use x="159.033203" xlink:href="#DejaVuSerif-30"/>
       <use x="222.65625" xlink:href="#DejaVuSerif-34"/>
      </g>
     </g>
    </g>
    <g id="xtick_6">
     <g id="line2d_11">
      <path clip-path="url(#p30bcd19251)" d="M 398.162939 307.584 
L 398.162939 41.472 
" style="fill:none;stroke:#b0b0b0;stroke-linecap:square;stroke-width:0.8;"/>
     </g>
     <g id="line2d_12">
      <g>
       <use style="stroke:#000000;stroke-width:0.8;" x="398.162939" xlink:href="#m290fbde1d7" y="307.584"/>
      </g>
     </g>
     <g id="text_6">
      <!-- 0.005 -->
      <g transform="translate(383.848877 322.182437)scale(0.1 -0.1)">
       <defs>
        <path d="M 3219 4666 
L 3219 4153 
L 1081 4153 
L 1081 2816 
Q 1244 2928 1461 2984 
Q 1678 3041 1947 3041 
Q 2703 3041 3140 2622 
Q 3578 2203 3578 1478 
Q 3578 738 3136 323 
Q 2694 -91 1894 -91 
Q 1572 -91 1234 -12 
Q 897 66 544 225 
L 544 1131 
L 897 1131 
Q 925 688 1179 453 
Q 1434 219 1894 219 
Q 2388 219 2653 544 
Q 2919 869 2919 1478 
Q 2919 2084 2655 2407 
Q 2391 2731 1894 2731 
Q 1613 2731 1398 2631 
Q 1184 2531 1019 2322 
L 750 2322 
L 750 4666 
L 3219 4666 
z
" id="DejaVuSerif-35" transform="scale(0.015625)"/>
       </defs>
       <use xlink:href="#DejaVuSerif-30"/>
       <use x="63.623047" xlink:href="#DejaVuSerif-2e"/>
       <use x="95.410156" xlink:href="#DejaVuSerif-30"/>
       <use x="159.033203" xlink:href="#DejaVuSerif-30"/>
       <use x="222.65625" xlink:href="#DejaVuSerif-35"/>
      </g>
     </g>
    </g>
    <g id="text_7">
     <!-- Time (s) -->
     <g transform="translate(215.468594 335.860562)scale(0.1 -0.1)">
      <defs>
       <path d="M 1222 0 
L 1222 331 
L 1819 331 
L 1819 4294 
L 447 4294 
L 447 3566 
L 63 3566 
L 63 4666 
L 4206 4666 
L 4206 3566 
L 3822 3566 
L 3822 4294 
L 2450 4294 
L 2450 331 
L 3047 331 
L 3047 0 
L 1222 0 
z
" id="DejaVuSerif-54" transform="scale(0.015625)"/>
       <path d="M 622 4353 
Q 622 4497 726 4603 
Q 831 4709 978 4709 
Q 1122 4709 1226 4603 
Q 1331 4497 1331 4353 
Q 1331 4206 1228 4103 
Q 1125 4000 978 4000 
Q 831 4000 726 4103 
Q 622 4206 622 4353 
z
M 1356 331 
L 1900 331 
L 1900 0 
L 231 0 
L 231 331 
L 781 331 
L 781 2988 
L 231 2988 
L 231 3322 
L 1356 3322 
L 1356 331 
z
" id="DejaVuSerif-69" transform="scale(0.015625)"/>
       <path d="M 3316 2675 
Q 3481 3041 3739 3227 
Q 3997 3413 4341 3413 
Q 4863 3413 5119 3089 
Q 5375 2766 5375 2113 
L 5375 331 
L 5894 331 
L 5894 0 
L 4300 0 
L 4300 331 
L 4800 331 
L 4800 2047 
Q 4800 2556 4650 2772 
Q 4500 2988 4153 2988 
Q 3769 2988 3567 2697 
Q 3366 2406 3366 1850 
L 3366 331 
L 3866 331 
L 3866 0 
L 2291 0 
L 2291 331 
L 2791 331 
L 2791 2069 
Q 2791 2566 2641 2777 
Q 2491 2988 2144 2988 
Q 1759 2988 1557 2697 
Q 1356 2406 1356 1850 
L 1356 331 
L 1856 331 
L 1856 0 
L 263 0 
L 263 331 
L 781 331 
L 781 2994 
L 231 2994 
L 231 3322 
L 1356 3322 
L 1356 2731 
Q 1516 3063 1762 3238 
Q 2009 3413 2322 3413 
Q 2709 3413 2968 3220 
Q 3228 3028 3316 2675 
z
" id="DejaVuSerif-6d" transform="scale(0.015625)"/>
       <path d="M 3469 1600 
L 991 1600 
L 991 1575 
Q 991 903 1244 561 
Q 1497 219 1991 219 
Q 2369 219 2611 417 
Q 2853 616 2950 1006 
L 3413 1006 
Q 3275 459 2904 184 
Q 2534 -91 1931 -91 
Q 1203 -91 761 389 
Q 319 869 319 1663 
Q 319 2450 753 2931 
Q 1188 3413 1894 3413 
Q 2647 3413 3050 2948 
Q 3453 2484 3469 1600 
z
M 2791 1931 
Q 2772 2513 2545 2808 
Q 2319 3103 1894 3103 
Q 1497 3103 1269 2806 
Q 1041 2509 991 1931 
L 2791 1931 
z
" id="DejaVuSerif-65" transform="scale(0.015625)"/>
       <path id="DejaVuSerif-20" transform="scale(0.015625)"/>
       <path d="M 2041 -997 
Q 1281 -656 893 83 
Q 506 822 506 1931 
Q 506 3044 893 3783 
Q 1281 4522 2041 4863 
L 2041 4556 
Q 1559 4225 1350 3623 
Q 1141 3022 1141 1931 
Q 1141 844 1350 242 
Q 1559 -359 2041 -691 
L 2041 -997 
z
" id="DejaVuSerif-28" transform="scale(0.015625)"/>
       <path d="M 359 184 
L 359 959 
L 691 959 
Q 703 588 923 403 
Q 1144 219 1575 219 
Q 1963 219 2166 364 
Q 2369 509 2369 788 
Q 2369 1006 2220 1140 
Q 2072 1275 1594 1428 
L 1178 1569 
Q 750 1706 558 1912 
Q 366 2119 366 2438 
Q 366 2894 700 3153 
Q 1034 3413 1625 3413 
Q 1888 3413 2178 3344 
Q 2469 3275 2778 3144 
L 2778 2419 
L 2447 2419 
Q 2434 2741 2221 2922 
Q 2009 3103 1644 3103 
Q 1281 3103 1095 2975 
Q 909 2847 909 2591 
Q 909 2381 1050 2254 
Q 1191 2128 1613 1997 
L 2069 1856 
Q 2541 1709 2748 1489 
Q 2956 1269 2956 922 
Q 2956 450 2595 179 
Q 2234 -91 1600 -91 
Q 1278 -91 972 -22 
Q 666 47 359 184 
z
" id="DejaVuSerif-73" transform="scale(0.015625)"/>
       <path d="M 453 -997 
L 453 -691 
Q 934 -359 1145 242 
Q 1356 844 1356 1931 
Q 1356 3022 1145 3623 
Q 934 4225 453 4556 
L 453 4863 
Q 1216 4522 1603 3783 
Q 1991 3044 1991 1931 
Q 1991 822 1603 83 
Q 1216 -656 453 -997 
z
" id="DejaVuSerif-29" transform="scale(0.015625)"/>
      </defs>
      <use xlink:href="#DejaVuSerif-54"/>
      <use x="66.699219" xlink:href="#DejaVuSerif-69"/>
      <use x="98.681641" xlink:href="#DejaVuSerif-6d"/>
      <use x="193.505859" xlink:href="#DejaVuSerif-65"/>
      <use x="252.685547" xlink:href="#DejaVuSerif-20"/>
      <use x="284.472656" xlink:href="#DejaVuSerif-28"/>
      <use x="323.486328" xlink:href="#DejaVuSerif-73"/>
      <use x="374.804688" xlink:href="#DejaVuSerif-29"/>
     </g>
    </g>
   </g>
   <g id="matplotlib.axis_2">
    <g id="ytick_1">
     <g id="line2d_13">
      <path clip-path="url(#p30bcd19251)" d="M 57.6 295.538247 
L 414.72 295.538247 
" style="fill:none;stroke:#b0b0b0;stroke-linecap:square;stroke-width:0.8;"/>
     </g>
     <g id="line2d_14">
      <defs>
       <path d="M 0 0 
L -3.5 0 
" id="mc4a4b5c0df" style="stroke:#000000;stroke-width:0.8;"/>
      </defs>
      <g>
       <use style="stroke:#000000;stroke-width:0.8;" x="57.6" xlink:href="#mc4a4b5c0df" y="295.538247"/>
      </g>
     </g>
     <g id="text_8">
      <!-- 0.0 -->
      <g transform="translate(34.696875 299.337466)scale(0.1 -0.1)">
       <use xlink:href="#DejaVuSerif-30"/>
       <use x="63.623047" xlink:href="#DejaVuSerif-2e"/>
       <use x="95.410156" xlink:href="#DejaVuSerif-30"/>
      </g>
     </g>
    </g>
    <g id="ytick_2">
     <g id="line2d_15">
      <path clip-path="url(#p30bcd19251)" d="M 57.6 258.845495 
L 414.72 258.845495 
" style="fill:none;stroke:#b0b0b0;stroke-linecap:square;stroke-width:0.8;"/>
     </g>
     <g id="line2d_16">
      <g>
       <use style="stroke:#000000;stroke-width:0.8;" x="57.6" xlink:href="#mc4a4b5c0df" y="258.845495"/>
      </g>
     </g>
     <g id="text_9">
      <!-- 0.5 -->
      <g transform="translate(34.696875 262.644713)scale(0.1 -0.1)">
       <use xlink:href="#DejaVuSerif-30"/>
       <use x="63.623047" xlink:href="#DejaVuSerif-2e"/>
       <use x="95.410156" xlink:href="#DejaVuSerif-35"/>
      </g>
     </g>
    </g>
    <g id="ytick_3">
     <g id="line2d_17">
      <path clip-path="url(#p30bcd19251)" d="M 57.6 222.152742 
L 414.72 222.152742 
" style="fill:none;stroke:#b0b0b0;stroke-linecap:square;stroke-width:0.8;"/>
     </g>
     <g id="line2d_18">
      <g>
       <use style="stroke:#000000;stroke-width:0.8;" x="57.6" xlink:href="#mc4a4b5c0df" y="222.152742"/>
      </g>
     </g>
     <g id="text_10">
      <!-- 1.0 -->
      <g transform="translate(34.696875 225.951961)scale(0.1 -0.1)">
       <use xlink:href="#DejaVuSerif-31"/>
       <use x="63.623047" xlink:href="#DejaVuSerif-2e"/>
       <use x="95.410156" xlink:href="#DejaVuSerif-30"/>
      </g>
     </g>
    </g>
    <g id="ytick_4">
     <g id="line2d_19">
      <path clip-path="url(#p30bcd19251)" d="M 57.6 185.45999 
L 414.72 185.45999 
" style="fill:none;stroke:#b0b0b0;stroke-linecap:square;stroke-width:0.8;"/>
     </g>
     <g id="line2d_20">
      <g>
       <use style="stroke:#000000;stroke-width:0.8;" x="57.6" xlink:href="#mc4a4b5c0df" y="185.45999"/>
      </g>
     </g>
     <g id="text_11">
      <!-- 1.5 -->
      <g transform="translate(34.696875 189.259209)scale(0.1 -0.1)">
       <use xlink:href="#DejaVuSerif-31"/>
       <use x="63.623047" xlink:href="#DejaVuSerif-2e"/>
       <use x="95.410156" xlink:href="#DejaVuSerif-35"/>
      </g>
     </g>
    </g>
    <g id="ytick_5">
     <g id="line2d_21">
      <path clip-path="url(#p30bcd19251)" d="M 57.6 148.767238 
L 414.72 148.767238 
" style="fill:none;stroke:#b0b0b0;stroke-linecap:square;stroke-width:0.8;"/>
     </g>
     <g id="line2d_22">
      <g>
       <use style="stroke:#000000;stroke-width:0.8;" x="57.6" xlink:href="#mc4a4b5c0df" y="148.767238"/>
      </g>
     </g>
     <g id="text_12">
      <!-- 2.0 -->
      <g transform="translate(34.696875 152.566456)scale(0.1 -0.1)">
       <use xlink:href="#DejaVuSerif-32"/>
       <use x="63.623047" xlink:href="#DejaVuSerif-2e"/>
       <use x="95.410156" xlink:href="#DejaVuSerif-30"/>
      </g>
     </g>
    </g>
    <g id="ytick_6">
     <g id="line2d_23">
      <path clip-path="url(#p30bcd19251)" d="M 57.6 112.074485 
L 414.72 112.074485 
" style="fill:none;stroke:#b0b0b0;stroke-linecap:square;stroke-width:0.8;"/>
     </g>
     <g id="line2d_24">
      <g>
       <use style="stroke:#000000;stroke-width:0.8;" x="57.6" xlink:href="#mc4a4b5c0df" y="112.074485"/>
      </g>
     </g>
     <g id="text_13">
      <!-- 2.5 -->
      <g transform="translate(34.696875 115.873704)scale(0.1 -0.1)">
       <use xlink:href="#DejaVuSerif-32"/>
       <use x="63.623047" xlink:href="#DejaVuSerif-2e"/>
       <use x="95.410156" xlink:href="#DejaVuSerif-35"/>
      </g>
     </g>
    </g>
    <g id="ytick_7">
     <g id="line2d_25">
      <path clip-path="url(#p30bcd19251)" d="M 57.6 75.381733 
L 414.72 75.381733 
" style="fill:none;stroke:#b0b0b0;stroke-linecap:square;stroke-width:0.8;"/>
     </g>
     <g id="line2d_26">
      <g>
       <use style="stroke:#000000;stroke-width:0.8;" x="57.6" xlink:href="#mc4a4b5c0df" y="75.381733"/>
      </g>
     </g>
     <g id="text_14">
      <!-- 3.0 -->
      <g transform="translate(34.696875 79.180952)scale(0.1 -0.1)">
       <use xlink:href="#DejaVuSerif-33"/>
       <use x="63.623047" xlink:href="#DejaVuSerif-2e"/>
       <use x="95.410156" xlink:href="#DejaVuSerif-30"/>
      </g>
     </g>
    </g>
    <g id="text_15">
     <!-- Density (kg/m^3) -->
     <g transform="translate(28.475 219.233469)rotate(-90)scale(0.1 -0.1)">
      <defs>
       <path d="M 1581 331 
L 2163 331 
Q 3072 331 3558 850 
Q 4044 1369 4044 2338 
Q 4044 3306 3559 3818 
Q 3075 4331 2163 4331 
L 1581 4331 
L 1581 331 
z
M 353 0 
L 353 331 
L 947 331 
L 947 4331 
L 353 4331 
L 353 4666 
L 2209 4666 
Q 3416 4666 4089 4050 
Q 4763 3434 4763 2338 
Q 4763 1238 4088 619 
Q 3413 0 2209 0 
L 353 0 
z
" id="DejaVuSerif-44" transform="scale(0.015625)"/>
       <path d="M 263 0 
L 263 331 
L 781 331 
L 781 2988 
L 231 2988 
L 231 3322 
L 1356 3322 
L 1356 2731 
Q 1516 3069 1770 3241 
Q 2025 3413 2363 3413 
Q 2913 3413 3172 3097 
Q 3431 2781 3431 2113 
L 3431 331 
L 3944 331 
L 3944 0 
L 2356 0 
L 2356 331 
L 2853 331 
L 2853 1931 
Q 2853 2541 2703 2767 
Q 2553 2994 2175 2994 
Q 1775 2994 1565 2701 
Q 1356 2409 1356 1850 
L 1356 331 
L 1856 331 
L 1856 0 
L 263 0 
z
" id="DejaVuSerif-6e" transform="scale(0.015625)"/>
       <path d="M 691 2988 
L 184 2988 
L 184 3322 
L 691 3322 
L 691 4353 
L 1269 4353 
L 1269 3322 
L 2350 3322 
L 2350 2988 
L 1269 2988 
L 1269 878 
Q 1269 456 1350 337 
Q 1431 219 1650 219 
Q 1875 219 1978 351 
Q 2081 484 2088 781 
L 2522 781 
Q 2497 328 2275 118 
Q 2053 -91 1600 -91 
Q 1103 -91 897 129 
Q 691 350 691 878 
L 691 2988 
z
" id="DejaVuSerif-74" transform="scale(0.015625)"/>
       <path d="M 1381 -609 
L 1600 -56 
L 359 2988 
L -19 2988 
L -19 3322 
L 1509 3322 
L 1509 2988 
L 978 2988 
L 1913 703 
L 2847 2988 
L 2350 2988 
L 2350 3322 
L 3597 3322 
L 3597 2988 
L 3225 2988 
L 1703 -750 
Q 1547 -1138 1356 -1280 
Q 1166 -1422 819 -1422 
Q 672 -1422 517 -1397 
Q 363 -1372 206 -1325 
L 206 -691 
L 500 -691 
Q 519 -903 608 -995 
Q 697 -1088 884 -1088 
Q 1056 -1088 1161 -992 
Q 1266 -897 1381 -609 
z
" id="DejaVuSerif-79" transform="scale(0.015625)"/>
       <path d="M 1831 0 
L 219 0 
L 219 331 
L 738 331 
L 738 4531 
L 184 4531 
L 184 4863 
L 1313 4863 
L 1313 1697 
L 2713 2988 
L 2234 2988 
L 2234 3322 
L 3738 3322 
L 3738 2988 
L 3169 2988 
L 2181 2075 
L 3444 331 
L 3922 331 
L 3922 0 
L 2284 0 
L 2284 331 
L 2759 331 
L 1766 1697 
L 1313 1275 
L 1313 331 
L 1831 331 
L 1831 0 
z
" id="DejaVuSerif-6b" transform="scale(0.015625)"/>
       <path d="M 3359 2988 
L 3359 72 
Q 3359 -644 2965 -1033 
Q 2572 -1422 1844 -1422 
Q 1516 -1422 1216 -1362 
Q 916 -1303 641 -1184 
L 641 -488 
L 941 -488 
Q 997 -813 1206 -963 
Q 1416 -1113 1806 -1113 
Q 2313 -1113 2548 -827 
Q 2784 -541 2784 72 
L 2784 519 
Q 2616 206 2355 57 
Q 2094 -91 1709 -91 
Q 1097 -91 708 395 
Q 319 881 319 1663 
Q 319 2444 706 2928 
Q 1094 3413 1709 3413 
Q 2094 3413 2355 3264 
Q 2616 3116 2784 2803 
L 2784 3322 
L 3909 3322 
L 3909 2988 
L 3359 2988 
z
M 2784 1825 
Q 2784 2422 2554 2737 
Q 2325 3053 1888 3053 
Q 1444 3053 1217 2703 
Q 991 2353 991 1663 
Q 991 975 1217 622 
Q 1444 269 1888 269 
Q 2325 269 2554 583 
Q 2784 897 2784 1497 
L 2784 1825 
z
" id="DejaVuSerif-67" transform="scale(0.015625)"/>
       <path d="M 1656 4666 
L 2156 4666 
L 500 -594 
L 0 -594 
L 1656 4666 
z
" id="DejaVuSerif-2f" transform="scale(0.015625)"/>
       <path d="M 2988 4666 
L 4684 2925 
L 4206 2925 
L 2681 4116 
L 1159 2925 
L 678 2925 
L 2375 4666 
L 2988 4666 
z
" id="DejaVuSerif-5e" transform="scale(0.015625)"/>
      </defs>
      <use xlink:href="#DejaVuSerif-44"/>
      <use x="80.175781" xlink:href="#DejaVuSerif-65"/>
      <use x="139.355469" xlink:href="#DejaVuSerif-6e"/>
      <use x="203.759766" xlink:href="#DejaVuSerif-73"/>
      <use x="255.078125" xlink:href="#DejaVuSerif-69"/>
      <use x="287.060547" xlink:href="#DejaVuSerif-74"/>
      <use x="327.246094" xlink:href="#DejaVuSerif-79"/>
      <use x="383.740234" xlink:href="#DejaVuSerif-20"/>
      <use x="415.527344" xlink:href="#DejaVuSerif-28"/>
      <use x="454.541016" xlink:href="#DejaVuSerif-6b"/>
      <use x="515.136719" xlink:href="#DejaVuSerif-67"/>
      <use x="579.150391" xlink:href="#DejaVuSerif-2f"/>
      <use x="612.841797" xlink:href="#DejaVuSerif-6d"/>
      <use x="707.666016" xlink:href="#DejaVuSerif-5e"/>
      <use x="791.455078" xlink:href="#DejaVuSerif-33"/>
      <use x="855.078125" xlink:href="#DejaVuSerif-29"/>
     </g>
    </g>
   </g>
   <g id="line2d_27">
    <path clip-path="url(#p30bcd19251)" d="M 73.832727 295.485696 
L 89.58236 295.376079 
L 90.675364 295.243008 
L 91.560794 295.095821 
L 92.037564 295.019081 
L 93.062458 294.482749 
L 93.539228 294.530619 
L 94.492768 294.213122 
L 95.378199 294.119691 
L 95.790102 293.980888 
L 97.084193 293.461098 
L 98.245306 293.28087 
L 99.948057 292.750893 
L 100.904841 292.279861 
L 101.994601 291.420011 
L 102.403261 290.696919 
L 103.084362 289.503485 
L 103.973035 288.867842 
L 104.449805 288.555721 
L 105.062796 287.520616 
L 105.607676 286.917308 
L 106.084446 286.673509 
L 107.79044 286.290698 
L 109.428324 285.888426 
L 112.292188 285.047545 
L 113.586279 284.5211 
L 116.177703 283.424287 
L 116.790693 282.906515 
L 117.815587 281.726975 
L 118.973458 280.402975 
L 119.794021 279.777617 
L 120.883782 279.281864 
L 122.382202 278.850684 
L 123.270876 278.495022 
L 123.611426 278.108119 
L 124.564966 276.81104 
L 125.8623 275.718395 
L 127.840734 274.50604 
L 129.134825 274.011597 
L 133.296023 272.718451 
L 135.955557 272.004334 
L 138.203188 271.150631 
L 142.023836 269.791513 
L 147.683455 268.066185 
L 156.411268 266.592136 
L 161.457897 266.073698 
L 170.18571 265.730404 
L 172.640914 265.536415 
L 174.006358 265.584236 
L 176.185879 265.647575 
L 179.802197 265.535301 
L 182.802282 265.508948 
L 186.142916 265.475911 
L 194.325849 265.325269 
L 196.985384 265.232283 
L 198.759488 265.174779 
L 205.236427 264.626268 
L 207.964071 264.678502 
L 213.41936 264.863671 
L 218.874648 264.735936 
L 221.534183 264.710102 
L 225.082391 264.550725 
L 231.28689 264.28218 
L 233.537764 264.408802 
L 236.946509 264.532219 
L 240.900133 264.388629 
L 248.742516 263.946817 
L 253.857255 264.02939 
L 254.950259 264.127504 
L 255.018369 264.219912 
L 255.086479 264.167995 
L 255.222699 262.72935 
L 255.495139 254.820174 
L 255.563249 255.879635 
L 255.631359 256.555438 
L 255.767579 254.311429 
L 256.040019 249.786979 
L 256.312459 248.355676 
L 257.266 242.560924 
L 257.814123 237.815981 
L 258.359003 233.785528 
L 258.767664 233.189513 
L 259.108214 232.609832 
L 259.380654 231.506801 
L 260.473657 225.673797 
L 261.290978 223.336599 
L 263.541852 213.302818 
L 263.950512 211.465405 
L 264.291062 210.260223 
L 265.520286 204.767438 
L 266.133276 202.699016 
L 267.086817 199.74192 
L 267.631697 198.359733 
L 268.108467 197.088904 
L 268.724701 195.644678 
L 270.223121 192.411646 
L 270.631781 192.124683 
L 270.975575 191.359844 
L 271.384235 190.575413 
L 271.792895 190.066912 
L 272.610215 188.684283 
L 273.291316 188.361575 
L 274.111879 187.339003 
L 274.384319 187.180435 
L 274.86109 186.461407 
L 275.40597 185.566864 
L 276.15518 184.767301 
L 276.635194 184.170461 
L 276.907634 184.158192 
L 277.248184 184.210546 
L 277.588734 183.924478 
L 278.337944 183.257282 
L 278.746604 182.983955 
L 279.294728 182.461529 
L 279.907718 182.284375 
L 280.180158 181.757341 
L 280.384488 180.802734 
L 280.588818 178.844758 
L 281.133699 172.522865 
L 281.338029 172.245711 
L 281.610469 172.118773 
L 281.818042 171.622281 
L 282.090482 169.985745 
L 282.362922 168.802581 
L 282.635362 168.579201 
L 282.839693 168.50145 
L 283.180243 167.967173 
L 283.588903 167.444709 
L 283.929453 166.962079 
L 284.477577 166.030102 
L 284.818127 165.911855 
L 285.294897 165.778431 
L 285.567337 165.534072 
L 285.839777 164.833644 
L 286.316547 163.449312 
L 286.520877 163.313081 
L 286.793317 163.509306 
L 286.997647 163.585357 
L 287.205221 163.411286 
L 288.226871 162.123104 
L 289.044192 161.460245 
L 289.452852 160.965584 
L 290.000975 160.334524 
L 290.954516 159.704507 
L 292.044276 158.389633 
L 293.13728 157.501576 
L 295.864924 155.681686 
L 296.273584 155.559378 
L 297.159015 155.016634 
L 298.047688 154.713391 
L 299.137449 154.220126 
L 299.682329 154.112218 
L 301.252103 153.498428 
L 301.728873 153.33861 
L 302.273753 153.151517 
L 303.298647 152.930945 
L 303.775417 152.787844 
L 305.069508 152.635915 
L 306.298731 152.362523 
L 306.979832 152.099521 
L 307.524712 151.863034 
L 308.614472 151.528035 
L 309.503146 151.215313 
L 310.116136 150.97834 
L 315.435205 147.214078 
L 315.980085 146.867971 
L 317.617969 145.847389 
L 318.503399 145.417501 
L 319.38883 144.810053 
L 323.958688 141.677988 
L 325.528462 140.300594 
L 326.277672 139.693661 
L 328.392326 137.437821 
L 329.005317 136.77937 
L 331.188081 134.053743 
L 332.277841 132.492476 
L 333.234625 131.176098 
L 334.324385 129.601975 
L 335.826049 126.82347 
L 337.25636 124.46757 
L 341.281338 118.153333 
L 341.758108 117.836708 
L 342.371098 117.530996 
L 342.847868 116.82329 
L 345.166853 112.157573 
L 345.916063 111.293477 
L 346.668517 110.235684 
L 347.417727 109.32924 
L 348.303157 108.265699 
L 349.052367 107.374195 
L 349.600491 106.811372 
L 350.077261 106.410474 
L 351.851365 104.301111 
L 357.579094 98.639555 
L 358.464524 97.950323 
L 359.009405 97.403254 
L 359.898078 96.826569 
L 360.851619 96.162183 
L 361.600829 95.811308 
L 362.281929 95.188375 
L 363.102493 94.708469 
L 363.715483 94.310843 
L 365.625807 93.398979 
L 366.511237 92.803045 
L 368.149121 92.40385 
L 369.238882 91.7772 
L 369.988092 91.540443 
L 372.034636 90.58854 
L 372.851956 90.127218 
L 373.80874 89.356968 
L 374.966611 88.771045 
L 376.536384 88.135108 
L 377.353705 87.670894 
L 380.694339 86.282644 
L 381.103 86.134878 
L 381.991673 85.547544 
L 382.808993 85.115277 
L 384.446877 84.479584 
L 385.264198 84.317723 
L 386.830728 84.008176 
L 387.515072 83.704094 
L 389.765946 83.091172 
L 391.128147 82.552186 
L 391.468697 82.371743 
L 391.809247 82.321324 
L 391.877357 82.104543 
L 392.013577 79.894864 
L 392.697921 55.617385 
L 393.038471 54.353422 
L 393.310911 54.100333 
L 393.719571 53.951584 
L 394.264451 53.684578 
L 395.221235 53.647322 
L 397.196426 54.611177 
L 397.605086 54.546684 
L 398.224563 54.051471 
L 398.487273 53.805285 
L 398.487273 53.805285 
" style="fill:none;stroke:#1f77b4;stroke-linecap:square;stroke-width:1.5;"/>
   </g>
   <g id="line2d_28">
    <path clip-path="url(#p30bcd19251)" d="M 73.832727 295.485697 
L 96.607423 295.38932 
L 98.722077 295.232641 
L 103.564375 294.761588 
L 108.06288 293.90624 
L 109.360214 293.6546 
L 110.177534 293.369459 
L 110.790525 292.971642 
L 112.632739 292.061514 
L 113.177619 292.073101 
L 113.790609 292.090719 
L 114.338733 292.108211 
L 114.951723 292.085224 
L 115.905263 291.828392 
L 117.202597 291.354479 
L 117.815587 291.040896 
L 118.564797 290.890414 
L 119.245898 290.864859 
L 119.794021 290.878254 
L 120.543232 290.81789 
L 121.769212 290.400991 
L 122.314092 289.887429 
L 122.862216 289.052008 
L 124.224416 286.372849 
L 124.837406 285.809285 
L 125.45364 285.495666 
L 126.67962 285.350357 
L 127.701271 285.132643 
L 128.249394 285.091147 
L 128.589945 284.902923 
L 129.134825 284.598133 
L 129.815925 284.209012 
L 131.726249 282.441946 
L 132.203019 282.105495 
L 133.568463 280.482673 
L 134.522003 279.974927 
L 135.203104 279.698787 
L 136.159887 279.30961 
L 136.636658 279.02347 
L 138.135078 278.022986 
L 139.568632 276.807228 
L 139.841072 276.589799 
L 141.547066 274.795861 
L 143.658477 273.644638 
L 144.00227 273.528405 
L 144.751481 273.191623 
L 145.500691 272.8428 
L 145.841241 272.676403 
L 146.729915 272.383233 
L 147.138575 272.222363 
L 148.636995 271.547667 
L 149.318096 271.252052 
L 149.661889 271.073928 
L 150.479209 270.711022 
L 153.206854 268.738058 
L 153.887954 268.334327 
L 154.912848 267.519295 
L 156.002608 266.614196 
L 156.275048 266.58029 
L 156.956149 266.251324 
L 157.432919 266.079307 
L 158.049152 265.705488 
L 158.594032 265.679952 
L 159.479463 265.558024 
L 160.981127 265.006513 
L 162.207107 264.848023 
L 162.615767 264.806292 
L 163.436331 264.679085 
L 165.207192 264.396738 
L 167.117516 263.948009 
L 167.662396 263.730537 
L 168.346739 263.458694 
L 169.23217 263.037078 
L 169.50461 262.976718 
L 172.027924 261.103002 
L 172.845245 261.054244 
L 173.185795 260.898836 
L 173.594455 260.687432 
L 174.619349 260.315615 
L 175.028009 260.579306 
L 176.117769 260.449622 
L 176.529673 260.441406 
L 177.619433 260.543306 
L 177.891873 260.631212 
L 178.368643 260.535022 
L 178.913523 260.512067 
L 179.257317 260.480404 
L 179.802197 260.547418 
L 180.142747 260.411142 
L 180.619517 260.173853 
L 181.848741 259.630468 
L 182.325511 259.557287 
L 183.074722 259.207095 
L 183.551492 259.003814 
L 184.436922 258.460945 
L 184.985046 258.05096 
L 186.279136 257.579548 
L 187.028347 257.500766 
L 188.39379 257.247731 
L 189.074891 257.388275 
L 189.551661 257.243291 
L 189.895454 257.178013 
L 190.576555 257.227448 
L 190.848995 257.226334 
L 191.325765 257.34026 
L 191.666315 257.227211 
L 192.006865 257.131187 
L 193.236089 257.085859 
L 193.712859 256.983038 
L 194.666399 257.06179 
L 194.938839 256.905514 
L 195.623183 256.518953 
L 195.963733 256.479549 
L 196.712943 256.148902 
L 197.257824 255.838271 
L 199.168148 255.306356 
L 200.326018 255.384101 
L 200.874142 255.278633 
L 201.623352 255.315593 
L 202.645002 255.246901 
L 203.257993 255.396713 
L 204.623436 255.394745 
L 206.669981 254.809243 
L 207.078641 254.68035 
L 207.487301 254.557907 
L 208.236511 254.543317 
L 208.645171 254.455083 
L 210.078725 253.747237 
L 210.623605 253.688252 
L 210.964156 253.672661 
L 211.236596 253.674684 
L 211.580389 253.628579 
L 212.87448 253.368055 
L 213.21503 253.281169 
L 213.75991 253.430569 
L 214.989134 252.82078 
L 215.670234 252.383038 
L 216.283224 252.335496 
L 217.103788 252.491487 
L 219.763322 251.377434 
L 220.171982 251.296873 
L 220.512532 251.201458 
L 221.057413 251.121327 
L 221.329853 251.096086 
L 221.602293 251.074034 
L 222.559077 250.5844 
L 222.899627 250.46639 
L 223.172067 250.345923 
L 224.125607 250.360185 
L 224.602377 250.197671 
L 225.899711 249.675145 
L 226.853251 249.362577 
L 227.878145 249.22706 
L 229.853336 248.392018 
L 233.060994 247.458543 
L 233.333434 247.321641 
L 233.537764 247.622141 
L 233.605874 247.345453 
L 233.742094 244.269292 
L 234.355084 220.026658 
L 234.627524 218.634172 
L 235.512955 215.182662 
L 235.788638 214.676541 
L 236.469738 212.912658 
L 236.674069 212.378743 
L 237.218949 210.580019 
L 238.516283 208.498674 
L 238.856833 207.843468 
L 239.333603 207.246837 
L 240.014703 206.046645 
L 242.538017 201.536975 
L 242.878568 201.096711 
L 244.039681 199.488878 
L 246.699216 195.961613 
L 247.244096 195.742486 
L 247.652756 195.11174 
L 248.129526 194.438505 
L 249.29064 193.244636 
L 249.6993 192.746516 
L 250.31229 192.466384 
L 250.65284 192.202411 
L 251.197721 191.699146 
L 252.018284 191.329251 
L 252.631275 190.765845 
L 253.721035 189.831666 
L 254.814039 189.581027 
L 255.222699 189.410748 
L 256.584899 188.833428 
L 256.925449 188.544371 
L 257.266 188.231463 
L 258.563333 187.782672 
L 258.835774 187.719222 
L 259.244434 187.766841 
L 259.993644 187.560093 
L 263.065082 187.557321 
L 263.405632 187.549083 
L 264.359172 187.202766 
L 265.040273 187.194009 
L 265.452176 187.052878 
L 266.133276 186.729391 
L 266.814377 186.428933 
L 267.359257 186.315897 
L 267.836027 186.32893 
L 268.792811 186.086887 
L 269.746351 186.034717 
L 270.155011 185.906187 
L 271.248015 185.886616 
L 271.724785 185.661851 
L 272.473995 185.535049 
L 273.223206 185.431506 
L 274.316209 185.058003 
L 275.40597 185.354605 
L 276.635194 185.56585 
L 277.043854 185.571051 
L 278.269834 185.334921 
L 279.158508 185.354014 
L 279.839608 185.141473 
L 280.793148 185.193032 
L 281.338029 185.331344 
L 284.065673 185.456957 
L 284.750017 185.557905 
L 285.703557 185.476713 
L 287.205221 185.984611 
L 287.750101 186.003218 
L 290.545855 185.861594 
L 291.703726 186.10427 
L 293.13728 185.899514 
L 293.2735 185.297168 
L 293.47783 182.550637 
L 293.81838 177.717254 
L 294.15893 175.936769 
L 294.56759 175.042291 
L 295.112471 174.531448 
L 296.205474 173.927995 
L 297.090905 173.96027 
L 297.295235 173.738775 
L 297.843358 172.967963 
L 298.115798 172.909769 
L 298.524458 172.863338 
L 299.273669 172.503493 
L 300.227209 172.034871 
L 300.911553 171.605338 
L 301.728873 171.24052 
L 302.273753 170.98985 
L 302.954853 170.631051 
L 305.001398 169.994381 
L 305.341948 169.886943 
L 306.503061 169.454539 
L 308.685826 169.103239 
L 309.094486 169.099323 
L 310.184246 168.874627 
L 310.592906 168.700421 
L 311.89024 167.949056 
L 313.661101 167.514176 
L 314.277334 167.310317 
L 314.958435 167.171166 
L 315.503315 167.230354 
L 317.549859 166.634645 
L 320.005063 166.252625 
L 320.618053 166.414114 
L 321.231044 166.470953 
L 321.571594 166.405347 
L 322.187827 166.268625 
L 323.345698 166.059643 
L 327.367433 166.092614 
L 327.847446 166.205266 
L 328.460436 166.42841 
L 330.711311 167.016694 
L 332.141621 167.311812 
L 332.754611 167.641038 
L 333.098405 167.879739 
L 335.277926 168.243845 
L 335.894159 168.47181 
L 336.302819 168.621077 
L 337.12014 168.965047 
L 337.59691 169.066124 
L 338.417473 169.437602 
L 339.030464 169.521299 
L 339.915894 169.681868 
L 340.801324 169.824743 
L 341.213228 169.902161 
L 341.962438 169.973649 
L 342.711648 170.146427 
L 343.120309 170.27348 
L 343.597079 170.399346 
L 344.281422 170.729819 
L 344.690082 170.738039 
L 345.439293 170.750723 
L 346.736627 170.979478 
L 347.349617 171.13645 
L 350.213481 171.543507 
L 351.919475 171.787317 
L 352.328135 171.899903 
L 353.622226 172.759042 
L 353.962776 172.838766 
L 354.91956 172.449225 
L 355.80499 172.193104 
L 356.48609 172.264377 
L 357.238544 172.433728 
L 358.260194 172.353591 
L 359.145625 172.227245 
L 361.260279 172.546976 
L 361.668939 172.61628 
L 362.418149 172.464266 
L 363.170603 172.402643 
L 363.783593 172.503335 
L 369.375102 173.100603 
L 371.149206 173.733915 
L 371.625976 173.953582 
L 372.102746 174.085879 
L 373.80874 174.36268 
L 375.443381 174.602945 
L 376.056371 174.618109 
L 377.081265 174.930386 
L 377.558035 174.966997 
L 377.626145 174.854414 
L 377.762365 173.590098 
L 378.307245 162.774287 
L 378.579685 162.327521 
L 379.672689 161.704736 
L 380.217569 161.526784 
L 381.17111 160.896334 
L 382.059783 160.247403 
L 383.898754 159.480711 
L 384.787428 159.126566 
L 385.536638 158.802081 
L 387.378852 158.445178 
L 389.697836 158.5099 
L 390.515156 158.33473 
L 391.264367 158.178217 
L 392.902251 157.797938 
L 393.515241 157.675461 
L 394.128231 157.541445 
L 395.289345 157.413166 
L 396.992095 157.308986 
L 398.046179 157.539731 
L 398.487273 157.653418 
L 398.487273 157.653418 
" style="fill:none;stroke:#ff7f0e;stroke-linecap:square;stroke-width:1.5;"/>
   </g>
   <g id="line2d_29">
    <path clip-path="url(#p30bcd19251)" d="M 73.832727 295.485696 
L 100.972951 295.364732 
L 103.288692 295.181733 
L 106.36013 294.814407 
L 111.403515 294.094705 
L 113.722499 293.594356 
L 115.428493 293.402443 
L 117.475037 292.529823 
L 118.428577 292.021733 
L 120.270791 291.900413 
L 121.020002 291.778513 
L 123.951976 291.027176 
L 125.65797 290.869192 
L 126.883951 290.296373 
L 128.998605 288.791826 
L 131.113259 287.725566 
L 133.08845 286.035413 
L 134.181453 285.027403 
L 134.726334 284.83778 
L 136.023667 284.608946 
L 136.364217 284.261023 
L 137.249648 283.362782 
L 138.887532 281.763565 
L 139.568632 281.054009 
L 140.590282 280.210329 
L 141.135163 279.896532 
L 141.478956 279.771778 
L 142.568716 279.396217 
L 142.909267 279.148261 
L 143.522257 278.728986 
L 144.2066 278.377288 
L 144.615261 278.183792 
L 149.318096 274.367553 
L 150.070549 274.031126 
L 151.16031 273.453671 
L 152.117093 272.953496 
L 152.389533 272.805138 
L 152.798194 272.649319 
L 153.138744 272.336415 
L 153.411184 272.177049 
L 154.024174 272.004005 
L 154.364724 271.738479 
L 154.980958 271.323333 
L 155.389618 271.067891 
L 156.070718 270.451875 
L 156.683708 270.118766 
L 157.572382 269.345218 
L 157.912932 269.088612 
L 158.457812 268.639989 
L 159.888123 267.80275 
L 160.231916 267.646559 
L 160.504357 267.544602 
L 160.981127 267.463809 
L 162.479547 266.826833 
L 163.300111 266.849947 
L 164.185541 266.535492 
L 165.479632 265.899238 
L 165.891535 265.709024 
L 168.61918 264.110473 
L 169.02784 263.964196 
L 169.30028 263.950395 
L 169.57272 263.97725 
L 170.39004 263.713876 
L 171.006274 263.677991 
L 171.483044 263.574522 
L 171.959814 263.498257 
L 172.368474 263.342769 
L 174.210688 263.128344 
L 175.572889 262.365342 
L 177.619433 261.247966 
L 178.709193 260.957093 
L 180.483297 260.652493 
L 180.823848 260.580863 
L 181.232508 260.414883 
L 182.393621 260.088162 
L 183.823932 259.170749 
L 184.576386 258.76758 
L 185.666146 258.366123 
L 188.4619 258.35704 
L 188.802451 258.371106 
L 189.687881 258.105191 
L 190.644665 257.310611 
L 191.393875 256.75511 
L 191.802535 256.445538 
L 192.415525 256.152042 
L 193.372309 256.095225 
L 195.00695 255.674017 
L 195.282633 255.695748 
L 196.099953 255.432312 
L 196.372393 255.33729 
L 198.282717 254.253298 
L 198.623268 254.22407 
L 199.100038 254.085868 
L 200.053578 254.026072 
L 200.942252 254.021511 
L 201.282802 253.993904 
L 201.827682 253.85928 
L 202.304452 253.721237 
L 202.645002 253.686619 
L 203.601786 253.12699 
L 203.874226 253.046431 
L 204.419106 252.79983 
L 204.895877 252.8971 
L 205.645087 252.568058 
L 206.601871 252.617654 
L 206.942421 252.606367 
L 207.351081 252.709566 
L 208.372731 252.391005 
L 209.193295 252.03012 
L 209.806285 251.665139 
L 210.078725 251.482078 
L 210.555495 251.61731 
L 210.827935 251.723142 
L 211.100376 251.855652 
L 212.125269 251.600545 
L 212.87448 251.664419 
L 213.21503 251.457652 
L 213.75991 251.021975 
L 214.10046 250.889571 
L 214.444253 250.741359 
L 216.351334 250.797568 
L 217.103788 250.554627 
L 217.784888 250.299733 
L 219.831432 249.664181 
L 221.329853 249.698172 
L 222.079063 249.119387 
L 222.354746 248.96789 
L 222.967737 248.94221 
L 223.035847 248.98214 
L 223.103957 248.781071 
L 223.240177 246.866828 
L 223.512617 235.391579 
L 223.716947 228.286447 
L 224.125607 225.371447 
L 224.329937 224.754325 
L 224.738597 223.016178 
L 225.286721 221.603353 
L 225.491051 221.240687 
L 225.967821 220.010871 
L 226.240261 219.275424 
L 226.580811 218.40705 
L 227.125692 217.490871 
L 228.014365 215.593862 
L 228.559245 214.635953 
L 229.104126 213.919026 
L 230.53768 211.751705 
L 231.08256 210.802581 
L 232.51287 209.04672 
L 233.810204 207.450111 
L 234.423194 206.656579 
L 237.763829 202.682556 
L 238.788723 201.415557 
L 239.810373 200.691875 
L 240.150923 200.419884 
L 242.810458 197.768972 
L 244.039681 196.741326 
L 244.993222 195.766149 
L 246.014872 194.996933 
L 246.903546 194.095329 
L 248.129526 193.133703 
L 248.401966 193.113863 
L 248.810626 193.092149 
L 250.17607 192.475236 
L 250.72095 192.092137 
L 252.835605 191.337411 
L 253.448595 191.409143 
L 254.197805 191.423885 
L 254.606465 191.348052 
L 255.018369 191.290411 
L 256.176239 191.20234 
L 257.06167 191.283406 
L 257.814123 191.076758 
L 259.244434 191.001539 
L 259.925534 190.949099 
L 260.950428 190.918746 
L 261.699638 190.806074 
L 262.585068 190.862596 
L 263.269412 190.791289 
L 263.678072 190.803648 
L 264.154842 190.843429 
L 264.835942 190.982251 
L 265.312713 191.128806 
L 267.291147 191.127596 
L 267.767917 191.098709 
L 270.768001 191.411367 
L 271.316125 191.689481 
L 272.201555 192.023522 
L 273.566999 192.464274 
L 275.13353 192.718745 
L 276.22329 193.023077 
L 276.567084 193.155961 
L 277.316294 193.457999 
L 277.724954 193.585119 
L 279.226618 193.94364 
L 280.112048 193.861605 
L 280.861258 194.13607 
L 281.542359 194.431267 
L 282.022372 194.418633 
L 282.431032 194.509889 
L 282.839693 194.571151 
L 285.022457 194.736283 
L 285.975997 194.950582 
L 288.226871 195.354563 
L 290.341525 195.546725 
L 290.886406 195.636778 
L 291.431286 195.677879 
L 293.2735 196.172666 
L 294.56759 196.203665 
L 296.341694 195.93773 
L 296.954685 196.060774 
L 297.772005 196.298059 
L 298.456348 196.257199 
L 298.728789 196.004188 
L 298.865009 195.424251 
L 299.069339 192.431099 
L 299.341779 188.573475 
L 299.614219 187.392827 
L 299.954769 186.789153 
L 301.320213 185.983207 
L 301.933203 186.002475 
L 302.205643 185.763697 
L 302.818633 185.121108 
L 303.230537 184.961065 
L 303.707307 184.903499 
L 304.660847 184.487056 
L 305.205728 184.202889 
L 306.026291 183.681235 
L 306.434951 183.504996 
L 306.979832 183.413348 
L 308.958266 182.198166 
L 309.911806 181.965601 
L 310.592906 181.626969 
L 311.48158 181.120492 
L 313.729211 180.326566 
L 314.209224 180.133279 
L 315.571425 179.58829 
L 316.732539 178.868958 
L 317.754189 178.407285 
L 318.162849 178.263358 
L 318.912059 178.038597 
L 319.800733 177.727856 
L 320.345613 177.600381 
L 321.162934 177.474358 
L 321.707814 177.553324 
L 322.187827 177.664153 
L 322.868928 177.399735 
L 323.345698 177.214144 
L 324.367348 177.153244 
L 326.550112 177.151039 
L 329.005317 177.557998 
L 329.890747 177.559596 
L 330.711311 177.801374 
L 332.209731 178.240573 
L 332.550281 178.297962 
L 333.098405 178.275812 
L 334.664935 178.743917 
L 335.209816 178.733323 
L 336.234709 178.764001 
L 337.5288 179.138521 
L 338.349363 179.545289 
L 340.937544 180.054372 
L 341.553778 180.278682 
L 343.597079 180.326192 
L 347.213397 180.847866 
L 347.690167 180.846904 
L 348.166937 180.830492 
L 348.711817 180.884144 
L 349.464271 180.921193 
L 350.145371 180.975307 
L 350.758361 181.073927 
L 351.235132 181.202379 
L 351.780012 181.181833 
L 352.191915 181.169617 
L 352.873016 181.075554 
L 353.554116 180.853603 
L 354.71523 180.853332 
L 355.05578 180.913176 
L 355.80499 180.85717 
L 356.28176 180.792091 
L 356.82664 180.674935 
L 357.510984 180.868069 
L 358.123974 181.043178 
L 358.668854 181.069439 
L 359.349955 180.840041 
L 360.034298 180.681609 
L 360.442958 180.413076 
L 362.009489 180.069322 
L 362.350039 180.059789 
L 362.761943 180.011264 
L 364.532803 180.108398 
L 365.213904 180.194082 
L 366.102577 180.292876 
L 367.873438 180.433914 
L 368.353451 180.511001 
L 368.966442 180.582818 
L 370.669192 180.67608 
L 371.149206 180.712234 
L 371.830306 180.702306 
L 371.898416 180.519572 
L 372.034636 178.741168 
L 372.443296 169.590289 
L 372.647626 169.010678 
L 373.260617 168.481694 
L 374.14929 167.937907 
L 377.626145 165.699672 
L 378.239135 165.446339 
L 378.715905 165.339342 
L 381.651123 164.831397 
L 388.059952 165.446173 
L 389.013492 165.542417 
L 389.558373 165.731495 
L 390.174606 165.804336 
L 390.719486 165.848267 
L 391.604917 165.97599 
L 395.425565 166.204629 
L 396.310995 166.269655 
L 398.487273 166.703546 
L 398.487273 166.703546 
" style="fill:none;stroke:#2ca02c;stroke-linecap:square;stroke-width:1.5;"/>
   </g>
   <g id="line2d_30">
    <path clip-path="url(#p30bcd19251)" d="M 73.832727 295.485696 
L 104.586026 295.374954 
L 107.72233 295.186483 
L 116.109593 294.135234 
L 117.475037 293.856074 
L 119.930241 293.562034 
L 120.951892 293.143478 
L 121.837322 292.869871 
L 124.292526 292.467672 
L 125.52175 291.913303 
L 126.27096 291.523729 
L 127.020171 291.442521 
L 128.726165 291.423073 
L 129.884035 291.015578 
L 130.772709 290.559409 
L 131.590029 290.492553 
L 132.611679 290.423945 
L 133.704683 290.185521 
L 134.181453 289.91205 
L 135.475544 289.032989 
L 136.159887 288.779564 
L 136.977208 288.497555 
L 137.726418 288.176905 
L 138.475628 287.645826 
L 139.772962 286.701576 
L 140.590282 286.035979 
L 141.135163 285.582163 
L 142.228166 285.013642 
L 143.181707 284.213324 
L 144.615261 282.951675 
L 145.364471 282.61831 
L 148.773215 281.001635 
L 149.729999 280.184268 
L 150.479209 279.659081 
L 151.16031 279.304385 
L 154.024174 277.918497 
L 154.569054 277.483204 
L 155.457728 276.588205 
L 156.819928 275.497079 
L 157.228589 275.223628 
L 157.844822 274.896784 
L 158.457812 274.774776 
L 158.866473 274.537154 
L 159.411353 274.231432 
L 160.572467 273.85179 
L 160.776797 273.736766 
L 162.002777 272.68914 
L 162.820097 272.170162 
L 163.368221 271.785 
L 164.457981 271.265539 
L 167.798616 269.786759 
L 170.04949 267.964122 
L 171.006274 267.615178 
L 172.777134 267.072771 
L 173.938248 266.838949 
L 175.164229 266.317177 
L 176.393453 265.664325 
L 177.142663 265.148244 
L 177.483213 265.211324 
L 177.687543 265.194478 
L 178.300533 264.907996 
L 178.777303 264.840283 
L 179.189207 264.712579 
L 179.938417 264.649253 
L 181.028178 264.192845 
L 181.300618 264.084496 
L 182.666062 263.145119 
L 183.210942 262.928953 
L 184.508276 262.65509 
L 185.325596 262.596208 
L 187.096457 262.097353 
L 187.57647 261.924313 
L 189.279221 260.993155 
L 191.530095 260.551944 
L 191.938755 260.358178 
L 192.623099 259.991019 
L 193.236089 259.811525 
L 193.849079 259.514343 
L 194.257739 259.302827 
L 197.053494 258.637561 
L 197.325934 258.566678 
L 197.938924 258.539751 
L 198.350827 258.2344 
L 198.691378 258.07875 
L 199.576808 257.913704 
L 200.257908 257.714383 
L 200.737922 257.66255 
L 201.282802 257.519163 
L 201.759572 257.359847 
L 202.304452 257.041779 
L 204.623436 256.494262 
L 205.304537 256.470863 
L 206.806201 256.059262 
L 207.214861 256.036513 
L 208.100291 255.534827 
L 208.440841 255.566879 
L 208.988965 255.47469 
L 209.329515 255.492333 
L 209.465735 253.776033 
L 210.146835 240.300495 
L 210.419275 238.071172 
L 210.896045 234.991535 
L 211.168486 234.140987 
L 212.125269 232.017595 
L 212.602039 231.309187 
L 213.0107 230.809137 
L 213.82802 229.653194 
L 214.784804 227.978378 
L 215.670234 226.795849 
L 215.874564 226.558098 
L 216.828104 224.832888 
L 217.240008 224.151855 
L 218.465988 222.427687 
L 219.010869 221.524908 
L 219.967652 219.688106 
L 221.057413 218.247907 
L 221.874733 217.140329 
L 222.286636 216.644422 
L 222.831517 215.891065 
L 223.921277 214.695366 
L 224.602377 213.862902 
L 225.014281 213.608261 
L 225.286721 213.282905 
L 225.967821 212.414665 
L 226.648921 211.913847 
L 227.193802 211.503205 
L 227.673815 211.2876 
L 228.831686 210.165715 
L 229.376566 209.730047 
L 230.057666 209.253577 
L 230.74201 208.6555 
L 231.89988 207.79646 
L 233.060994 207.369911 
L 235.240515 205.94917 
L 235.788638 205.753722 
L 236.061078 205.718214 
L 237.014619 205.020698 
L 237.763829 204.568241 
L 238.308709 204.329014 
L 238.788723 204.239231 
L 239.946593 203.557035 
L 240.763913 203.063165 
L 241.788807 202.549261 
L 242.606127 202.361562 
L 242.946678 202.307637 
L 243.355338 202.260453 
L 243.903461 201.96029 
L 244.448341 201.706119 
L 245.061332 201.51846 
L 246.014872 201.036131 
L 247.244096 200.799565 
L 247.925196 200.679858 
L 248.333856 200.630541 
L 249.76741 199.987081 
L 250.993391 199.621622 
L 252.358834 199.239844 
L 252.835605 199.055084 
L 253.789145 198.652858 
L 254.882149 198.387989 
L 255.835689 198.404285 
L 256.584899 198.3392 
L 257.33411 198.133408 
L 258.427113 198.114825 
L 260.133107 198.244744 
L 260.746098 198.299868 
L 261.359088 198.564444 
L 261.835858 198.481956 
L 262.176408 198.470163 
L 262.996972 198.648288 
L 264.154842 199.042971 
L 264.835942 199.254194 
L 266.541936 199.732403 
L 270.086901 200.945 
L 270.563671 201.148313 
L 272.610215 202.020373 
L 273.427536 202.362248 
L 276.22329 203.30718 
L 276.771414 203.452847 
L 277.384404 203.578852 
L 279.022288 203.960313 
L 279.975828 204.24816 
L 280.452598 204.440248 
L 281.610469 204.672364 
L 282.090482 204.781975 
L 284.409466 205.137356 
L 285.022457 205.189496 
L 286.588987 205.487341 
L 286.997647 205.477513 
L 289.248522 206.057863 
L 290.954516 206.065945 
L 295.183824 206.815798 
L 296.137364 206.792506 
L 296.682244 206.859143 
L 297.363345 207.123813 
L 300.022879 207.093449 
L 301.252103 207.1485 
L 301.865093 207.007056 
L 302.750523 207.083438 
L 303.775417 207.364361 
L 304.660847 207.424833 
L 304.797067 207.267521 
L 304.933288 206.550064 
L 305.546278 199.373022 
L 305.886828 198.963043 
L 306.571171 198.456087 
L 307.797152 198.093386 
L 308.685826 197.475778 
L 309.435036 197.178113 
L 310.388576 196.652761 
L 311.54969 196.143106 
L 312.70756 195.551451 
L 313.456771 195.009543 
L 314.141114 194.738558 
L 316.661185 194.032773 
L 317.073089 194.026745 
L 318.843949 193.795338 
L 319.25261 193.858304 
L 320.549943 193.7651 
L 321.026714 193.673208 
L 321.775924 193.635727 
L 325.051692 193.516524 
L 327.643116 193.442649 
L 328.664766 193.504178 
L 330.37076 193.51309 
L 331.188081 193.623439 
L 333.030295 193.568299 
L 333.643285 193.633187 
L 334.596825 193.753611 
L 340.052114 194.641357 
L 340.596994 194.686835 
L 345.303073 195.129346 
L 345.847953 194.92422 
L 346.324723 194.874306 
L 347.009067 194.772522 
L 347.894497 194.787611 
L 348.507487 194.94078 
L 350.145371 195.03739 
L 350.690251 194.986852 
L 351.303242 195.052986 
L 351.851365 195.020248 
L 353.894666 194.964324 
L 354.5109 194.885412 
L 356.28176 194.823898 
L 357.510984 194.638159 
L 358.328304 194.751324 
L 359.281845 194.689677 
L 359.690505 194.680144 
L 360.374848 194.700296 
L 362.486259 194.418596 
L 363.238713 194.484033 
L 363.647373 194.56556 
L 363.987923 194.424129 
L 365.282014 193.606071 
L 365.353367 193.380309 
L 365.489587 191.425206 
L 365.830137 184.237349 
L 366.102577 183.314343 
L 366.443127 182.996768 
L 367.532888 182.272715 
L 368.421561 181.662461 
L 370.192422 180.401034 
L 371.421646 179.65894 
L 372.375186 179.246451 
L 373.67252 178.872896 
L 375.715821 178.395637 
L 376.263944 178.358473 
L 377.966695 178.252167 
L 379.740799 178.06272 
L 380.421899 178.044966 
L 381.583013 178.211469 
L 382.536553 178.206627 
L 383.217654 178.2797 
L 384.103084 178.450327 
L 384.991758 178.646677 
L 388.196172 179.38133 
L 389.013492 179.530615 
L 390.583266 179.985553 
L 396.923985 182.156775 
L 398.487273 182.394072 
L 398.487273 182.394072 
" style="fill:none;stroke:#d62728;stroke-linecap:square;stroke-width:1.5;"/>
   </g>
   <g id="line2d_31">
    <path clip-path="url(#p30bcd19251)" d="M 73.832727 295.485695 
L 113.790609 295.313451 
L 118.701017 294.933271 
L 125.79419 294.085435 
L 128.726165 293.64224 
L 130.224585 293.39188 
L 131.658139 293.0434 
L 133.227913 292.872697 
L 137.045318 292.024801 
L 137.862638 291.825856 
L 138.819422 291.433023 
L 139.500522 291.30899 
L 141.547066 291.159876 
L 143.045487 290.770306 
L 143.794697 290.702652 
L 144.615261 290.562421 
L 147.479125 289.700331 
L 148.228335 289.162428 
L 149.249986 288.494049 
L 157.708602 284.044595 
L 159.547573 283.266489 
L 160.572467 282.778699 
L 162.411437 281.670527 
L 164.389871 280.731118 
L 167.730506 278.716334 
L 168.41485 278.488089 
L 169.91327 277.465749 
L 170.59437 277.047283 
L 172.709024 275.893888 
L 172.981465 275.187389 
L 173.458235 272.716966 
L 173.733918 271.71332 
L 174.278798 270.796353 
L 175.232339 268.361759 
L 175.913439 267.407707 
L 176.597783 266.201231 
L 178.709193 262.719761 
L 181.028178 259.751936 
L 181.780631 258.967666 
L 183.210942 257.309701 
L 183.960152 256.48334 
L 184.712606 255.768454 
L 186.279136 254.367811 
L 187.164567 253.804496 
L 187.98513 253.122702 
L 188.66623 252.407354 
L 189.143001 251.681852 
L 190.848995 248.5416 
L 191.257655 248.244898 
L 192.074975 247.721827 
L 192.415525 247.299279 
L 193.167979 246.2322 
L 194.870729 244.288237 
L 195.350743 243.739605 
L 198.010277 240.9366 
L 200.053578 238.878797 
L 200.598458 238.329365 
L 204.419106 233.539229 
L 204.963987 232.86314 
L 206.053747 231.459643 
L 210.487385 226.993206 
L 211.920939 225.713225 
L 213.41936 224.490201 
L 214.171813 224.032498 
L 215.738344 223.200553 
L 216.283224 222.860959 
L 216.828104 222.61492 
L 217.580558 222.152046 
L 218.874648 221.409826 
L 222.763407 219.861299 
L 223.716947 219.718279 
L 225.559161 219.195271 
L 226.308371 219.06585 
L 226.853251 218.944114 
L 227.193802 218.935793 
L 227.946255 218.713125 
L 228.354915 218.529078 
L 229.104126 218.208594 
L 229.989556 218.151044 
L 231.42311 217.885574 
L 232.37665 217.732927 
L 234.014534 217.183318 
L 235.240515 217.065869 
L 235.788638 217.184904 
L 236.265408 217.095104 
L 237.968159 216.755665 
L 238.856833 216.685346 
L 243.559668 215.897219 
L 244.516451 215.887124 
L 245.401882 215.566001 
L 248.265746 215.287516 
L 249.083067 215.134596 
L 250.03985 215.005811 
L 250.65284 215.004124 
L 251.470161 214.894114 
L 252.631275 214.806985 
L 253.244265 214.812646 
L 253.789145 214.852663 
L 254.538355 214.939531 
L 255.154589 214.973657 
L 256.244349 214.95085 
L 259.176324 215.059 
L 261.972078 214.906887 
L 263.405632 215.024992 
L 264.154842 215.059913 
L 269.065251 215.557589 
L 269.610131 215.706702 
L 270.699891 215.869234 
L 273.086986 216.449584 
L 275.6103 217.131824 
L 280.997479 218.403159 
L 283.180243 219.054584 
L 286.112217 219.683614 
L 286.861427 219.942589 
L 290.886406 220.617611 
L 291.567506 220.692777 
L 294.22704 221.015098 
L 295.183824 221.069065 
L 296.069254 221.153631 
L 298.183908 221.365058 
L 305.341948 221.463741 
L 306.503061 221.506755 
L 307.388492 221.43248 
L 309.230706 221.592516 
L 310.661016 221.848296 
L 314.413554 222.57741 
L 314.958435 222.678054 
L 315.094655 222.44364 
L 315.230875 221.146457 
L 315.571425 216.601696 
L 315.843865 216.021572 
L 316.184415 215.83723 
L 316.936869 215.755504 
L 317.481749 215.627508 
L 318.026629 215.43811 
L 318.980169 215.343062 
L 320.822384 214.846801 
L 321.231044 214.693472 
L 324.163018 214.372773 
L 325.119802 214.29195 
L 328.256106 213.651951 
L 331.051861 213.3037 
L 332.345951 213.103866 
L 333.915725 213.00303 
L 335.277926 212.978559 
L 336.166599 213.055751 
L 344.213312 212.77868 
L 345.098743 212.905204 
L 346.324723 212.948493 
L 347.894497 213.018286 
L 348.779927 213.196696 
L 349.532381 213.328424 
L 350.622141 213.38698 
L 351.439462 213.331966 
L 354.098996 213.344227 
L 354.167106 213.134406 
L 354.303326 211.208432 
L 354.57901 206.4593 
L 354.78334 205.823145 
L 355.12389 205.560784 
L 356.21365 205.011894 
L 357.03097 204.716859 
L 358.260194 204.280117 
L 359.281845 203.850441 
L 363.511153 202.41343 
L 364.873353 202.096154 
L 366.988008 201.658544 
L 368.898332 201.62307 
L 371.012986 201.375193 
L 372.511406 201.543512 
L 373.124397 201.614836 
L 374.2174 201.37228 
L 375.511491 200.966865 
L 377.285595 200.803497 
L 380.558119 200.887287 
L 383.694424 201.230336 
L 389.354043 202.102074 
L 389.970276 202.179727 
L 390.515156 202.277582 
L 393.242801 202.737506 
L 398.487273 203.635794 
L 398.487273 203.635794 
" style="fill:none;stroke:#9467bd;stroke-linecap:square;stroke-width:1.5;"/>
   </g>
   <g id="line2d_32">
    <path clip-path="url(#p30bcd19251)" d="M 73.832727 295.485696 
L 106.223909 295.403826 
L 106.56446 295.340565 
L 120.883782 295.085457 
L 122.382202 294.813154 
L 124.360636 294.583129 
L 130.704599 293.986835 
L 133.432243 293.436581 
L 136.227997 292.653564 
L 139.841072 291.380096 
L 147.274795 288.704827 
L 156.275048 286.057643 
L 160.092453 285.210726 
L 162.343327 284.696271 
L 163.163891 284.363374 
L 164.321761 283.936283 
L 165.207192 283.43426 
L 171.823594 281.265268 
L 177.551323 279.406121 
L 181.709278 277.814476 
L 186.619686 276.031788 
L 192.483635 274.454157 
L 200.530348 272.948004 
L 207.964071 272.120647 
L 215.465904 271.451551 
L 219.351419 271.108893 
L 231.76366 269.952334 
L 235.376735 269.870588 
L 240.559583 269.801271 
L 243.832108 269.836175 
L 249.42686 269.860655 
L 254.677819 269.712523 
L 265.656506 269.403237 
L 279.022288 268.765982 
L 283.997563 268.34565 
L 286.793317 268.276182 
L 291.226956 268.41076 
L 298.728789 269.080431 
L 303.366757 269.473216 
L 309.503146 269.922743 
L 313.592991 270.036393 
L 320.481833 270.057301 
L 324.639788 269.813157 
L 330.30265 269.413794 
L 332.345951 269.16068 
L 332.482171 268.52672 
L 332.686501 267.321428 
L 333.030295 266.937065 
L 334.324385 265.863009 
L 334.733045 263.825769 
L 335.757939 263.239244 
L 336.77959 262.843553 
L 343.736542 260.488509 
L 347.553947 259.644163 
L 350.349701 259.314298 
L 357.783424 258.756913 
L 360.442958 258.720952 
L 367.328558 258.983805 
L 375.102831 259.318054 
L 383.626314 259.275955 
L 392.49359 258.769992 
L 396.923985 258.256743 
L 398.487273 258.164456 
L 398.487273 258.164456 
" style="fill:none;stroke:#8c564b;stroke-linecap:square;stroke-width:1.5;"/>
   </g>
   <g id="patch_3">
    <path d="M 57.6 307.584 
L 57.6 41.472 
" style="fill:none;stroke:#000000;stroke-linecap:square;stroke-linejoin:miter;stroke-width:0.8;"/>
   </g>
   <g id="patch_4">
    <path d="M 414.72 307.584 
L 414.72 41.472 
" style="fill:none;stroke:#000000;stroke-linecap:square;stroke-linejoin:miter;stroke-width:0.8;"/>
   </g>
   <g id="patch_5">
    <path d="M 57.6 307.584 
L 414.72 307.584 
" style="fill:none;stroke:#000000;stroke-linecap:square;stroke-linejoin:miter;stroke-width:0.8;"/>
   </g>
   <g id="patch_6">
    <path d="M 57.6 41.472 
L 414.72 41.472 
" style="fill:none;stroke:#000000;stroke-linecap:square;stroke-linejoin:miter;stroke-width:0.8;"/>
   </g>
  </g>
  <g id="legend_1">
   <g id="patch_7">
    <path d="M 99.16 165.18875 
L 157.405313 165.18875 
Q 159.405313 165.18875 159.405313 163.18875 
L 159.405313 76.12 
Q 159.405313 74.12 157.405313 74.12 
L 99.16 74.12 
Q 97.16 74.12 97.16 76.12 
L 97.16 163.18875 
Q 97.16 165.18875 99.16 165.18875 
z
" style="fill:#ffffff;opacity:0.8;stroke:#cccccc;stroke-linejoin:miter;"/>
   </g>
   <g id="line2d_33">
    <path d="M 101.16 82.218437 
L 121.16 82.218437 
" style="fill:none;stroke:#1f77b4;stroke-linecap:square;stroke-width:1.5;"/>
   </g>
   <g id="line2d_34"/>
   <g id="text_16">
    <!-- TS00 -->
    <g transform="translate(129.16 85.718437)scale(0.1 -0.1)">
     <defs>
      <path d="M 594 225 
L 594 1288 
L 953 1284 
Q 969 753 1261 498 
Q 1553 244 2150 244 
Q 2706 244 2998 464 
Q 3291 684 3291 1106 
Q 3291 1444 3114 1625 
Q 2938 1806 2369 1978 
L 1753 2163 
Q 1084 2366 811 2669 
Q 538 2972 538 3500 
Q 538 4094 959 4422 
Q 1381 4750 2144 4750 
Q 2469 4750 2856 4679 
Q 3244 4609 3681 4475 
L 3681 3481 
L 3328 3481 
Q 3275 3975 2998 4195 
Q 2722 4416 2156 4416 
Q 1663 4416 1405 4214 
Q 1147 4013 1147 3628 
Q 1147 3294 1340 3103 
Q 1534 2913 2163 2725 
L 2741 2553 
Q 3375 2363 3645 2067 
Q 3916 1772 3916 1275 
Q 3916 597 3481 253 
Q 3047 -91 2188 -91 
Q 1803 -91 1404 -12 
Q 1006 66 594 225 
z
" id="DejaVuSerif-53" transform="scale(0.015625)"/>
     </defs>
     <use xlink:href="#DejaVuSerif-54"/>
     <use x="66.699219" xlink:href="#DejaVuSerif-53"/>
     <use x="135.205078" xlink:href="#DejaVuSerif-30"/>
     <use x="198.828125" xlink:href="#DejaVuSerif-30"/>
    </g>
   </g>
   <g id="line2d_35">
    <path d="M 101.16 96.896562 
L 121.16 96.896562 
" style="fill:none;stroke:#ff7f0e;stroke-linecap:square;stroke-width:1.5;"/>
   </g>
   <g id="line2d_36"/>
   <g id="text_17">
    <!-- TS01 -->
    <g transform="translate(129.16 100.396562)scale(0.1 -0.1)">
     <use xlink:href="#DejaVuSerif-54"/>
     <use x="66.699219" xlink:href="#DejaVuSerif-53"/>
     <use x="135.205078" xlink:href="#DejaVuSerif-30"/>
     <use x="198.828125" xlink:href="#DejaVuSerif-31"/>
    </g>
   </g>
   <g id="line2d_37">
    <path d="M 101.16 111.574687 
L 121.16 111.574687 
" style="fill:none;stroke:#2ca02c;stroke-linecap:square;stroke-width:1.5;"/>
   </g>
   <g id="line2d_38"/>
   <g id="text_18">
    <!-- TS02 -->
    <g transform="translate(129.16 115.074687)scale(0.1 -0.1)">
     <use xlink:href="#DejaVuSerif-54"/>
     <use x="66.699219" xlink:href="#DejaVuSerif-53"/>
     <use x="135.205078" xlink:href="#DejaVuSerif-30"/>
     <use x="198.828125" xlink:href="#DejaVuSerif-32"/>
    </g>
   </g>
   <g id="line2d_39">
    <path d="M 101.16 126.252813 
L 121.16 126.252813 
" style="fill:none;stroke:#d62728;stroke-linecap:square;stroke-width:1.5;"/>
   </g>
   <g id="line2d_40"/>
   <g id="text_19">
    <!-- TS03 -->
    <g transform="translate(129.16 129.752813)scale(0.1 -0.1)">
     <use xlink:href="#DejaVuSerif-54"/>
     <use x="66.699219" xlink:href="#DejaVuSerif-53"/>
     <use x="135.205078" xlink:href="#DejaVuSerif-30"/>
     <use x="198.828125" xlink:href="#DejaVuSerif-33"/>
    </g>
   </g>
   <g id="line2d_41">
    <path d="M 101.16 140.930937 
L 121.16 140.930937 
" style="fill:none;stroke:#9467bd;stroke-linecap:square;stroke-width:1.5;"/>
   </g>
   <g id="line2d_42"/>
   <g id="text_20">
    <!-- TS04 -->
    <g transform="translate(129.16 144.430937)scale(0.1 -0.1)">
     <use xlink:href="#DejaVuSerif-54"/>
     <use x="66.699219" xlink:href="#DejaVuSerif-53"/>
     <use x="135.205078" xlink:href="#DejaVuSerif-30"/>
     <use x="198.828125" xlink:href="#DejaVuSerif-34"/>
    </g>
   </g>
   <g id="line2d_43">
    <path d="M 101.16 155.609062 
L 121.16 155.609062 
" style="fill:none;stroke:#8c564b;stroke-linecap:square;stroke-width:1.5;"/>
   </g>
   <g id="line2d_44"/>
   <g id="text_21">
    <!-- TS05 -->
    <g transform="translate(129.16 159.109062)scale(0.1 -0.1)">
     <use xlink:href="#DejaVuSerif-54"/>
     <use x="66.699219" xlink:href="#DejaVuSerif-53"/>
     <use x="135.205078" xlink:href="#DejaVuSerif-30"/>
     <use x="198.828125" xlink:href="#DejaVuSerif-35"/>
    </g>
   </g>
  </g>
 </g>
 <defs>
  <clipPath id="p30bcd19251">
   <rect height="266.112" width="357.12" x="57.6" y="41.472"/>
  </clipPath>
 </defs>
</svg>
