<?xml version="1.0" encoding="utf-8" standalone="no"?>
<!DOCTYPE svg PUBLIC "-//W3C//DTD SVG 1.1//EN"
  "http://www.w3.org/Graphics/SVG/1.1/DTD/svg11.dtd">
<svg height="345.6pt" version="1.1" viewBox="0 0 460.8 345.6" width="460.8pt" xmlns="http://www.w3.org/2000/svg" xmlns:xlink="http://www.w3.org/1999/xlink">
 <metadata>
  <rdf:RDF xmlns:cc="http://creativecommons.org/ns#" xmlns:dc="http://purl.org/dc/elements/1.1/" xmlns:rdf="http://www.w3.org/1999/02/22-rdf-syntax-ns#">
   <cc:Work>
    <dc:type rdf:resource="http://purl.org/dc/dcmitype/StillImage"/>
    <dc:date>2022-03-07T19:55:21.361688</dc:date>
    <dc:format>image/svg+xml</dc:format>
    <dc:creator>
     <cc:Agent>
      <dc:title>Matplotlib v3.4.3, https://matplotlib.org/</dc:title>
     </cc:Agent>
    </dc:creator>
   </cc:Work>
  </rdf:RDF>
 </metadata>
 <defs>
  <style type="text/css">*{stroke-linecap:butt;stroke-linejoin:round;}</style>
 </defs>
 <g id="figure_1">
  <g id="patch_1">
   <path d="M 0 345.6 
L 460.8 345.6 
L 460.8 0 
L 0 0 
z
" style="fill:none;"/>
  </g>
  <g id="axes_1">
   <g id="patch_2">
    <path d="M 57.6 307.584 
L 414.72 307.584 
L 414.72 41.472 
L 57.6 41.472 
z
" style="fill:none;"/>
   </g>
   <g id="matplotlib.axis_1">
    <g id="xtick_1">
     <g id="line2d_1">
      <path clip-path="url(#pb303d9aae2)" d="M 73.831034 307.584 
L 73.831034 41.472 
" style="fill:none;stroke:#b0b0b0;stroke-linecap:square;stroke-width:0.8;"/>
     </g>
     <g id="line2d_2">
      <defs>
       <path d="M 0 0 
L 0 3.5 
" id="mabb196e521" style="stroke:#000000;stroke-width:0.8;"/>
      </defs>
      <g>
       <use style="stroke:#000000;stroke-width:0.8;" x="73.831034" xlink:href="#mabb196e521" y="307.584"/>
      </g>
     </g>
     <g id="text_1">
      <!-- 0.000 -->
      <g transform="translate(59.516971 322.182437)scale(0.1 -0.1)">
       <defs>
        <path d="M 2034 219 
Q 2513 219 2750 744 
Q 2988 1269 2988 2328 
Q 2988 3391 2750 3916 
Q 2513 4441 2034 4441 
Q 1556 4441 1318 3916 
Q 1081 3391 1081 2328 
Q 1081 1269 1318 744 
Q 1556 219 2034 219 
z
M 2034 -91 
Q 1275 -91 848 546 
Q 422 1184 422 2328 
Q 422 3475 848 4112 
Q 1275 4750 2034 4750 
Q 2797 4750 3222 4112 
Q 3647 3475 3647 2328 
Q 3647 1184 3222 546 
Q 2797 -91 2034 -91 
z
" id="DejaVuSerif-30" transform="scale(0.015625)"/>
        <path d="M 603 325 
Q 603 500 722 622 
Q 841 744 1019 744 
Q 1191 744 1312 622 
Q 1434 500 1434 325 
Q 1434 153 1312 31 
Q 1191 -91 1019 -91 
Q 841 -91 722 29 
Q 603 150 603 325 
z
" id="DejaVuSerif-2e" transform="scale(0.015625)"/>
       </defs>
       <use xlink:href="#DejaVuSerif-30"/>
       <use x="63.623047" xlink:href="#DejaVuSerif-2e"/>
       <use x="95.410156" xlink:href="#DejaVuSerif-30"/>
       <use x="159.033203" xlink:href="#DejaVuSerif-30"/>
       <use x="222.65625" xlink:href="#DejaVuSerif-30"/>
      </g>
     </g>
    </g>
    <g id="xtick_2">
     <g id="line2d_3">
      <path clip-path="url(#pb303d9aae2)" d="M 141.566531 307.584 
L 141.566531 41.472 
" style="fill:none;stroke:#b0b0b0;stroke-linecap:square;stroke-width:0.8;"/>
     </g>
     <g id="line2d_4">
      <g>
       <use style="stroke:#000000;stroke-width:0.8;" x="141.566531" xlink:href="#mabb196e521" y="307.584"/>
      </g>
     </g>
     <g id="text_2">
      <!-- 0.002 -->
      <g transform="translate(127.252469 322.182437)scale(0.1 -0.1)">
       <defs>
        <path d="M 819 3553 
L 469 3553 
L 469 4384 
Q 803 4563 1142 4656 
Q 1481 4750 1806 4750 
Q 2534 4750 2956 4397 
Q 3378 4044 3378 3438 
Q 3378 2753 2422 1800 
Q 2347 1728 2309 1691 
L 1131 513 
L 3078 513 
L 3078 1088 
L 3444 1088 
L 3444 0 
L 434 0 
L 434 341 
L 1850 1753 
Q 2319 2222 2519 2614 
Q 2719 3006 2719 3438 
Q 2719 3909 2473 4175 
Q 2228 4441 1797 4441 
Q 1350 4441 1106 4219 
Q 863 3997 819 3553 
z
" id="DejaVuSerif-32" transform="scale(0.015625)"/>
       </defs>
       <use xlink:href="#DejaVuSerif-30"/>
       <use x="63.623047" xlink:href="#DejaVuSerif-2e"/>
       <use x="95.410156" xlink:href="#DejaVuSerif-30"/>
       <use x="159.033203" xlink:href="#DejaVuSerif-30"/>
       <use x="222.65625" xlink:href="#DejaVuSerif-32"/>
      </g>
     </g>
    </g>
    <g id="xtick_3">
     <g id="line2d_5">
      <path clip-path="url(#pb303d9aae2)" d="M 209.302029 307.584 
L 209.302029 41.472 
" style="fill:none;stroke:#b0b0b0;stroke-linecap:square;stroke-width:0.8;"/>
     </g>
     <g id="line2d_6">
      <g>
       <use style="stroke:#000000;stroke-width:0.8;" x="209.302029" xlink:href="#mabb196e521" y="307.584"/>
      </g>
     </g>
     <g id="text_3">
      <!-- 0.004 -->
      <g transform="translate(194.987966 322.182437)scale(0.1 -0.1)">
       <defs>
        <path d="M 2234 1581 
L 2234 4063 
L 641 1581 
L 2234 1581 
z
M 3609 0 
L 1484 0 
L 1484 331 
L 2234 331 
L 2234 1247 
L 197 1247 
L 197 1588 
L 2241 4750 
L 2859 4750 
L 2859 1581 
L 3750 1581 
L 3750 1247 
L 2859 1247 
L 2859 331 
L 3609 331 
L 3609 0 
z
" id="DejaVuSerif-34" transform="scale(0.015625)"/>
       </defs>
       <use xlink:href="#DejaVuSerif-30"/>
       <use x="63.623047" xlink:href="#DejaVuSerif-2e"/>
       <use x="95.410156" xlink:href="#DejaVuSerif-30"/>
       <use x="159.033203" xlink:href="#DejaVuSerif-30"/>
       <use x="222.65625" xlink:href="#DejaVuSerif-34"/>
      </g>
     </g>
    </g>
    <g id="xtick_4">
     <g id="line2d_7">
      <path clip-path="url(#pb303d9aae2)" d="M 277.037526 307.584 
L 277.037526 41.472 
" style="fill:none;stroke:#b0b0b0;stroke-linecap:square;stroke-width:0.8;"/>
     </g>
     <g id="line2d_8">
      <g>
       <use style="stroke:#000000;stroke-width:0.8;" x="277.037526" xlink:href="#mabb196e521" y="307.584"/>
      </g>
     </g>
     <g id="text_4">
      <!-- 0.006 -->
      <g transform="translate(262.723463 322.182437)scale(0.1 -0.1)">
       <defs>
        <path d="M 2094 219 
Q 2534 219 2771 542 
Q 3009 866 3009 1472 
Q 3009 2078 2771 2401 
Q 2534 2725 2094 2725 
Q 1647 2725 1412 2412 
Q 1178 2100 1178 1509 
Q 1178 888 1415 553 
Q 1653 219 2094 219 
z
M 1075 2569 
Q 1288 2803 1556 2918 
Q 1825 3034 2163 3034 
Q 2859 3034 3264 2615 
Q 3669 2197 3669 1472 
Q 3669 763 3233 336 
Q 2797 -91 2069 -91 
Q 1278 -91 853 498 
Q 428 1088 428 2181 
Q 428 3406 931 4078 
Q 1434 4750 2350 4750 
Q 2597 4750 2869 4703 
Q 3141 4656 3425 4563 
L 3425 3794 
L 3072 3794 
Q 3034 4109 2831 4275 
Q 2628 4441 2284 4441 
Q 1678 4441 1381 3981 
Q 1084 3522 1075 2569 
z
" id="DejaVuSerif-36" transform="scale(0.015625)"/>
       </defs>
       <use xlink:href="#DejaVuSerif-30"/>
       <use x="63.623047" xlink:href="#DejaVuSerif-2e"/>
       <use x="95.410156" xlink:href="#DejaVuSerif-30"/>
       <use x="159.033203" xlink:href="#DejaVuSerif-30"/>
       <use x="222.65625" xlink:href="#DejaVuSerif-36"/>
      </g>
     </g>
    </g>
    <g id="xtick_5">
     <g id="line2d_9">
      <path clip-path="url(#pb303d9aae2)" d="M 344.773023 307.584 
L 344.773023 41.472 
" style="fill:none;stroke:#b0b0b0;stroke-linecap:square;stroke-width:0.8;"/>
     </g>
     <g id="line2d_10">
      <g>
       <use style="stroke:#000000;stroke-width:0.8;" x="344.773023" xlink:href="#mabb196e521" y="307.584"/>
      </g>
     </g>
     <g id="text_5">
      <!-- 0.008 -->
      <g transform="translate(330.458961 322.182437)scale(0.1 -0.1)">
       <defs>
        <path d="M 2981 1275 
Q 2981 1775 2732 2051 
Q 2484 2328 2034 2328 
Q 1584 2328 1336 2051 
Q 1088 1775 1088 1275 
Q 1088 772 1336 495 
Q 1584 219 2034 219 
Q 2484 219 2732 495 
Q 2981 772 2981 1275 
z
M 2853 3541 
Q 2853 3966 2637 4203 
Q 2422 4441 2034 4441 
Q 1650 4441 1433 4203 
Q 1216 3966 1216 3541 
Q 1216 3113 1433 2875 
Q 1650 2638 2034 2638 
Q 2422 2638 2637 2875 
Q 2853 3113 2853 3541 
z
M 2516 2484 
Q 3047 2413 3344 2092 
Q 3641 1772 3641 1275 
Q 3641 619 3225 264 
Q 2809 -91 2034 -91 
Q 1263 -91 845 264 
Q 428 619 428 1275 
Q 428 1772 725 2092 
Q 1022 2413 1556 2484 
Q 1084 2569 832 2842 
Q 581 3116 581 3541 
Q 581 4103 968 4426 
Q 1356 4750 2034 4750 
Q 2713 4750 3100 4426 
Q 3488 4103 3488 3541 
Q 3488 3116 3236 2842 
Q 2984 2569 2516 2484 
z
" id="DejaVuSerif-38" transform="scale(0.015625)"/>
       </defs>
       <use xlink:href="#DejaVuSerif-30"/>
       <use x="63.623047" xlink:href="#DejaVuSerif-2e"/>
       <use x="95.410156" xlink:href="#DejaVuSerif-30"/>
       <use x="159.033203" xlink:href="#DejaVuSerif-30"/>
       <use x="222.65625" xlink:href="#DejaVuSerif-38"/>
      </g>
     </g>
    </g>
    <g id="xtick_6">
     <g id="line2d_11">
      <path clip-path="url(#pb303d9aae2)" d="M 412.508521 307.584 
L 412.508521 41.472 
" style="fill:none;stroke:#b0b0b0;stroke-linecap:square;stroke-width:0.8;"/>
     </g>
     <g id="line2d_12">
      <g>
       <use style="stroke:#000000;stroke-width:0.8;" x="412.508521" xlink:href="#mabb196e521" y="307.584"/>
      </g>
     </g>
     <g id="text_6">
      <!-- 0.010 -->
      <g transform="translate(398.194458 322.182437)scale(0.1 -0.1)">
       <defs>
        <path d="M 909 0 
L 909 331 
L 1722 331 
L 1722 4213 
L 781 3603 
L 781 4013 
L 1919 4750 
L 2350 4750 
L 2350 331 
L 3163 331 
L 3163 0 
L 909 0 
z
" id="DejaVuSerif-31" transform="scale(0.015625)"/>
       </defs>
       <use xlink:href="#DejaVuSerif-30"/>
       <use x="63.623047" xlink:href="#DejaVuSerif-2e"/>
       <use x="95.410156" xlink:href="#DejaVuSerif-30"/>
       <use x="159.033203" xlink:href="#DejaVuSerif-31"/>
       <use x="222.65625" xlink:href="#DejaVuSerif-30"/>
      </g>
     </g>
    </g>
    <g id="text_7">
     <!-- Time (s) -->
     <g transform="translate(215.468594 335.860562)scale(0.1 -0.1)">
      <defs>
       <path d="M 1222 0 
L 1222 331 
L 1819 331 
L 1819 4294 
L 447 4294 
L 447 3566 
L 63 3566 
L 63 4666 
L 4206 4666 
L 4206 3566 
L 3822 3566 
L 3822 4294 
L 2450 4294 
L 2450 331 
L 3047 331 
L 3047 0 
L 1222 0 
z
" id="DejaVuSerif-54" transform="scale(0.015625)"/>
       <path d="M 622 4353 
Q 622 4497 726 4603 
Q 831 4709 978 4709 
Q 1122 4709 1226 4603 
Q 1331 4497 1331 4353 
Q 1331 4206 1228 4103 
Q 1125 4000 978 4000 
Q 831 4000 726 4103 
Q 622 4206 622 4353 
z
M 1356 331 
L 1900 331 
L 1900 0 
L 231 0 
L 231 331 
L 781 331 
L 781 2988 
L 231 2988 
L 231 3322 
L 1356 3322 
L 1356 331 
z
" id="DejaVuSerif-69" transform="scale(0.015625)"/>
       <path d="M 3316 2675 
Q 3481 3041 3739 3227 
Q 3997 3413 4341 3413 
Q 4863 3413 5119 3089 
Q 5375 2766 5375 2113 
L 5375 331 
L 5894 331 
L 5894 0 
L 4300 0 
L 4300 331 
L 4800 331 
L 4800 2047 
Q 4800 2556 4650 2772 
Q 4500 2988 4153 2988 
Q 3769 2988 3567 2697 
Q 3366 2406 3366 1850 
L 3366 331 
L 3866 331 
L 3866 0 
L 2291 0 
L 2291 331 
L 2791 331 
L 2791 2069 
Q 2791 2566 2641 2777 
Q 2491 2988 2144 2988 
Q 1759 2988 1557 2697 
Q 1356 2406 1356 1850 
L 1356 331 
L 1856 331 
L 1856 0 
L 263 0 
L 263 331 
L 781 331 
L 781 2994 
L 231 2994 
L 231 3322 
L 1356 3322 
L 1356 2731 
Q 1516 3063 1762 3238 
Q 2009 3413 2322 3413 
Q 2709 3413 2968 3220 
Q 3228 3028 3316 2675 
z
" id="DejaVuSerif-6d" transform="scale(0.015625)"/>
       <path d="M 3469 1600 
L 991 1600 
L 991 1575 
Q 991 903 1244 561 
Q 1497 219 1991 219 
Q 2369 219 2611 417 
Q 2853 616 2950 1006 
L 3413 1006 
Q 3275 459 2904 184 
Q 2534 -91 1931 -91 
Q 1203 -91 761 389 
Q 319 869 319 1663 
Q 319 2450 753 2931 
Q 1188 3413 1894 3413 
Q 2647 3413 3050 2948 
Q 3453 2484 3469 1600 
z
M 2791 1931 
Q 2772 2513 2545 2808 
Q 2319 3103 1894 3103 
Q 1497 3103 1269 2806 
Q 1041 2509 991 1931 
L 2791 1931 
z
" id="DejaVuSerif-65" transform="scale(0.015625)"/>
       <path id="DejaVuSerif-20" transform="scale(0.015625)"/>
       <path d="M 2041 -997 
Q 1281 -656 893 83 
Q 506 822 506 1931 
Q 506 3044 893 3783 
Q 1281 4522 2041 4863 
L 2041 4556 
Q 1559 4225 1350 3623 
Q 1141 3022 1141 1931 
Q 1141 844 1350 242 
Q 1559 -359 2041 -691 
L 2041 -997 
z
" id="DejaVuSerif-28" transform="scale(0.015625)"/>
       <path d="M 359 184 
L 359 959 
L 691 959 
Q 703 588 923 403 
Q 1144 219 1575 219 
Q 1963 219 2166 364 
Q 2369 509 2369 788 
Q 2369 1006 2220 1140 
Q 2072 1275 1594 1428 
L 1178 1569 
Q 750 1706 558 1912 
Q 366 2119 366 2438 
Q 366 2894 700 3153 
Q 1034 3413 1625 3413 
Q 1888 3413 2178 3344 
Q 2469 3275 2778 3144 
L 2778 2419 
L 2447 2419 
Q 2434 2741 2221 2922 
Q 2009 3103 1644 3103 
Q 1281 3103 1095 2975 
Q 909 2847 909 2591 
Q 909 2381 1050 2254 
Q 1191 2128 1613 1997 
L 2069 1856 
Q 2541 1709 2748 1489 
Q 2956 1269 2956 922 
Q 2956 450 2595 179 
Q 2234 -91 1600 -91 
Q 1278 -91 972 -22 
Q 666 47 359 184 
z
" id="DejaVuSerif-73" transform="scale(0.015625)"/>
       <path d="M 453 -997 
L 453 -691 
Q 934 -359 1145 242 
Q 1356 844 1356 1931 
Q 1356 3022 1145 3623 
Q 934 4225 453 4556 
L 453 4863 
Q 1216 4522 1603 3783 
Q 1991 3044 1991 1931 
Q 1991 822 1603 83 
Q 1216 -656 453 -997 
z
" id="DejaVuSerif-29" transform="scale(0.015625)"/>
      </defs>
      <use xlink:href="#DejaVuSerif-54"/>
      <use x="66.699219" xlink:href="#DejaVuSerif-69"/>
      <use x="98.681641" xlink:href="#DejaVuSerif-6d"/>
      <use x="193.505859" xlink:href="#DejaVuSerif-65"/>
      <use x="252.685547" xlink:href="#DejaVuSerif-20"/>
      <use x="284.472656" xlink:href="#DejaVuSerif-28"/>
      <use x="323.486328" xlink:href="#DejaVuSerif-73"/>
      <use x="374.804688" xlink:href="#DejaVuSerif-29"/>
     </g>
    </g>
   </g>
   <g id="matplotlib.axis_2">
    <g id="ytick_1">
     <g id="line2d_13">
      <path clip-path="url(#pb303d9aae2)" d="M 57.6 295.632216 
L 414.72 295.632216 
" style="fill:none;stroke:#b0b0b0;stroke-linecap:square;stroke-width:0.8;"/>
     </g>
     <g id="line2d_14">
      <defs>
       <path d="M 0 0 
L -3.5 0 
" id="m8ab075d4d8" style="stroke:#000000;stroke-width:0.8;"/>
      </defs>
      <g>
       <use style="stroke:#000000;stroke-width:0.8;" x="57.6" xlink:href="#m8ab075d4d8" y="295.632216"/>
      </g>
     </g>
     <g id="text_8">
      <!-- 0.0 -->
      <g transform="translate(34.696875 299.431434)scale(0.1 -0.1)">
       <use xlink:href="#DejaVuSerif-30"/>
       <use x="63.623047" xlink:href="#DejaVuSerif-2e"/>
       <use x="95.410156" xlink:href="#DejaVuSerif-30"/>
      </g>
     </g>
    </g>
    <g id="ytick_2">
     <g id="line2d_15">
      <path clip-path="url(#pb303d9aae2)" d="M 57.6 261.574883 
L 414.72 261.574883 
" style="fill:none;stroke:#b0b0b0;stroke-linecap:square;stroke-width:0.8;"/>
     </g>
     <g id="line2d_16">
      <g>
       <use style="stroke:#000000;stroke-width:0.8;" x="57.6" xlink:href="#m8ab075d4d8" y="261.574883"/>
      </g>
     </g>
     <g id="text_9">
      <!-- 0.5 -->
      <g transform="translate(34.696875 265.374102)scale(0.1 -0.1)">
       <defs>
        <path d="M 3219 4666 
L 3219 4153 
L 1081 4153 
L 1081 2816 
Q 1244 2928 1461 2984 
Q 1678 3041 1947 3041 
Q 2703 3041 3140 2622 
Q 3578 2203 3578 1478 
Q 3578 738 3136 323 
Q 2694 -91 1894 -91 
Q 1572 -91 1234 -12 
Q 897 66 544 225 
L 544 1131 
L 897 1131 
Q 925 688 1179 453 
Q 1434 219 1894 219 
Q 2388 219 2653 544 
Q 2919 869 2919 1478 
Q 2919 2084 2655 2407 
Q 2391 2731 1894 2731 
Q 1613 2731 1398 2631 
Q 1184 2531 1019 2322 
L 750 2322 
L 750 4666 
L 3219 4666 
z
" id="DejaVuSerif-35" transform="scale(0.015625)"/>
       </defs>
       <use xlink:href="#DejaVuSerif-30"/>
       <use x="63.623047" xlink:href="#DejaVuSerif-2e"/>
       <use x="95.410156" xlink:href="#DejaVuSerif-35"/>
      </g>
     </g>
    </g>
    <g id="ytick_3">
     <g id="line2d_17">
      <path clip-path="url(#pb303d9aae2)" d="M 57.6 227.51755 
L 414.72 227.51755 
" style="fill:none;stroke:#b0b0b0;stroke-linecap:square;stroke-width:0.8;"/>
     </g>
     <g id="line2d_18">
      <g>
       <use style="stroke:#000000;stroke-width:0.8;" x="57.6" xlink:href="#m8ab075d4d8" y="227.51755"/>
      </g>
     </g>
     <g id="text_10">
      <!-- 1.0 -->
      <g transform="translate(34.696875 231.316769)scale(0.1 -0.1)">
       <use xlink:href="#DejaVuSerif-31"/>
       <use x="63.623047" xlink:href="#DejaVuSerif-2e"/>
       <use x="95.410156" xlink:href="#DejaVuSerif-30"/>
      </g>
     </g>
    </g>
    <g id="ytick_4">
     <g id="line2d_19">
      <path clip-path="url(#pb303d9aae2)" d="M 57.6 193.460217 
L 414.72 193.460217 
" style="fill:none;stroke:#b0b0b0;stroke-linecap:square;stroke-width:0.8;"/>
     </g>
     <g id="line2d_20">
      <g>
       <use style="stroke:#000000;stroke-width:0.8;" x="57.6" xlink:href="#m8ab075d4d8" y="193.460217"/>
      </g>
     </g>
     <g id="text_11">
      <!-- 1.5 -->
      <g transform="translate(34.696875 197.259436)scale(0.1 -0.1)">
       <use xlink:href="#DejaVuSerif-31"/>
       <use x="63.623047" xlink:href="#DejaVuSerif-2e"/>
       <use x="95.410156" xlink:href="#DejaVuSerif-35"/>
      </g>
     </g>
    </g>
    <g id="ytick_5">
     <g id="line2d_21">
      <path clip-path="url(#pb303d9aae2)" d="M 57.6 159.402884 
L 414.72 159.402884 
" style="fill:none;stroke:#b0b0b0;stroke-linecap:square;stroke-width:0.8;"/>
     </g>
     <g id="line2d_22">
      <g>
       <use style="stroke:#000000;stroke-width:0.8;" x="57.6" xlink:href="#m8ab075d4d8" y="159.402884"/>
      </g>
     </g>
     <g id="text_12">
      <!-- 2.0 -->
      <g transform="translate(34.696875 163.202103)scale(0.1 -0.1)">
       <use xlink:href="#DejaVuSerif-32"/>
       <use x="63.623047" xlink:href="#DejaVuSerif-2e"/>
       <use x="95.410156" xlink:href="#DejaVuSerif-30"/>
      </g>
     </g>
    </g>
    <g id="ytick_6">
     <g id="line2d_23">
      <path clip-path="url(#pb303d9aae2)" d="M 57.6 125.345551 
L 414.72 125.345551 
" style="fill:none;stroke:#b0b0b0;stroke-linecap:square;stroke-width:0.8;"/>
     </g>
     <g id="line2d_24">
      <g>
       <use style="stroke:#000000;stroke-width:0.8;" x="57.6" xlink:href="#m8ab075d4d8" y="125.345551"/>
      </g>
     </g>
     <g id="text_13">
      <!-- 2.5 -->
      <g transform="translate(34.696875 129.14477)scale(0.1 -0.1)">
       <use xlink:href="#DejaVuSerif-32"/>
       <use x="63.623047" xlink:href="#DejaVuSerif-2e"/>
       <use x="95.410156" xlink:href="#DejaVuSerif-35"/>
      </g>
     </g>
    </g>
    <g id="ytick_7">
     <g id="line2d_25">
      <path clip-path="url(#pb303d9aae2)" d="M 57.6 91.288218 
L 414.72 91.288218 
" style="fill:none;stroke:#b0b0b0;stroke-linecap:square;stroke-width:0.8;"/>
     </g>
     <g id="line2d_26">
      <g>
       <use style="stroke:#000000;stroke-width:0.8;" x="57.6" xlink:href="#m8ab075d4d8" y="91.288218"/>
      </g>
     </g>
     <g id="text_14">
      <!-- 3.0 -->
      <g transform="translate(34.696875 95.087437)scale(0.1 -0.1)">
       <defs>
        <path d="M 622 4469 
Q 988 4606 1323 4678 
Q 1659 4750 1953 4750 
Q 2638 4750 3022 4454 
Q 3406 4159 3406 3634 
Q 3406 3213 3140 2930 
Q 2875 2647 2388 2547 
Q 2963 2466 3280 2130 
Q 3597 1794 3597 1259 
Q 3597 606 3158 257 
Q 2719 -91 1894 -91 
Q 1528 -91 1179 -12 
Q 831 66 488 225 
L 488 1131 
L 838 1131 
Q 869 681 1141 450 
Q 1413 219 1906 219 
Q 2384 219 2661 495 
Q 2938 772 2938 1253 
Q 2938 1803 2653 2086 
Q 2369 2369 1819 2369 
L 1522 2369 
L 1522 2688 
L 1678 2688 
Q 2225 2688 2498 2914 
Q 2772 3141 2772 3597 
Q 2772 4006 2547 4223 
Q 2322 4441 1900 4441 
Q 1478 4441 1245 4241 
Q 1013 4041 972 3647 
L 622 3647 
L 622 4469 
z
" id="DejaVuSerif-33" transform="scale(0.015625)"/>
       </defs>
       <use xlink:href="#DejaVuSerif-33"/>
       <use x="63.623047" xlink:href="#DejaVuSerif-2e"/>
       <use x="95.410156" xlink:href="#DejaVuSerif-30"/>
      </g>
     </g>
    </g>
    <g id="ytick_8">
     <g id="line2d_27">
      <path clip-path="url(#pb303d9aae2)" d="M 57.6 57.230885 
L 414.72 57.230885 
" style="fill:none;stroke:#b0b0b0;stroke-linecap:square;stroke-width:0.8;"/>
     </g>
     <g id="line2d_28">
      <g>
       <use style="stroke:#000000;stroke-width:0.8;" x="57.6" xlink:href="#m8ab075d4d8" y="57.230885"/>
      </g>
     </g>
     <g id="text_15">
      <!-- 3.5 -->
      <g transform="translate(34.696875 61.030104)scale(0.1 -0.1)">
       <use xlink:href="#DejaVuSerif-33"/>
       <use x="63.623047" xlink:href="#DejaVuSerif-2e"/>
       <use x="95.410156" xlink:href="#DejaVuSerif-35"/>
      </g>
     </g>
    </g>
    <g id="text_16">
     <!-- Density (kg/m^3) -->
     <g transform="translate(28.475 219.233469)rotate(-90)scale(0.1 -0.1)">
      <defs>
       <path d="M 1581 331 
L 2163 331 
Q 3072 331 3558 850 
Q 4044 1369 4044 2338 
Q 4044 3306 3559 3818 
Q 3075 4331 2163 4331 
L 1581 4331 
L 1581 331 
z
M 353 0 
L 353 331 
L 947 331 
L 947 4331 
L 353 4331 
L 353 4666 
L 2209 4666 
Q 3416 4666 4089 4050 
Q 4763 3434 4763 2338 
Q 4763 1238 4088 619 
Q 3413 0 2209 0 
L 353 0 
z
" id="DejaVuSerif-44" transform="scale(0.015625)"/>
       <path d="M 263 0 
L 263 331 
L 781 331 
L 781 2988 
L 231 2988 
L 231 3322 
L 1356 3322 
L 1356 2731 
Q 1516 3069 1770 3241 
Q 2025 3413 2363 3413 
Q 2913 3413 3172 3097 
Q 3431 2781 3431 2113 
L 3431 331 
L 3944 331 
L 3944 0 
L 2356 0 
L 2356 331 
L 2853 331 
L 2853 1931 
Q 2853 2541 2703 2767 
Q 2553 2994 2175 2994 
Q 1775 2994 1565 2701 
Q 1356 2409 1356 1850 
L 1356 331 
L 1856 331 
L 1856 0 
L 263 0 
z
" id="DejaVuSerif-6e" transform="scale(0.015625)"/>
       <path d="M 691 2988 
L 184 2988 
L 184 3322 
L 691 3322 
L 691 4353 
L 1269 4353 
L 1269 3322 
L 2350 3322 
L 2350 2988 
L 1269 2988 
L 1269 878 
Q 1269 456 1350 337 
Q 1431 219 1650 219 
Q 1875 219 1978 351 
Q 2081 484 2088 781 
L 2522 781 
Q 2497 328 2275 118 
Q 2053 -91 1600 -91 
Q 1103 -91 897 129 
Q 691 350 691 878 
L 691 2988 
z
" id="DejaVuSerif-74" transform="scale(0.015625)"/>
       <path d="M 1381 -609 
L 1600 -56 
L 359 2988 
L -19 2988 
L -19 3322 
L 1509 3322 
L 1509 2988 
L 978 2988 
L 1913 703 
L 2847 2988 
L 2350 2988 
L 2350 3322 
L 3597 3322 
L 3597 2988 
L 3225 2988 
L 1703 -750 
Q 1547 -1138 1356 -1280 
Q 1166 -1422 819 -1422 
Q 672 -1422 517 -1397 
Q 363 -1372 206 -1325 
L 206 -691 
L 500 -691 
Q 519 -903 608 -995 
Q 697 -1088 884 -1088 
Q 1056 -1088 1161 -992 
Q 1266 -897 1381 -609 
z
" id="DejaVuSerif-79" transform="scale(0.015625)"/>
       <path d="M 1831 0 
L 219 0 
L 219 331 
L 738 331 
L 738 4531 
L 184 4531 
L 184 4863 
L 1313 4863 
L 1313 1697 
L 2713 2988 
L 2234 2988 
L 2234 3322 
L 3738 3322 
L 3738 2988 
L 3169 2988 
L 2181 2075 
L 3444 331 
L 3922 331 
L 3922 0 
L 2284 0 
L 2284 331 
L 2759 331 
L 1766 1697 
L 1313 1275 
L 1313 331 
L 1831 331 
L 1831 0 
z
" id="DejaVuSerif-6b" transform="scale(0.015625)"/>
       <path d="M 3359 2988 
L 3359 72 
Q 3359 -644 2965 -1033 
Q 2572 -1422 1844 -1422 
Q 1516 -1422 1216 -1362 
Q 916 -1303 641 -1184 
L 641 -488 
L 941 -488 
Q 997 -813 1206 -963 
Q 1416 -1113 1806 -1113 
Q 2313 -1113 2548 -827 
Q 2784 -541 2784 72 
L 2784 519 
Q 2616 206 2355 57 
Q 2094 -91 1709 -91 
Q 1097 -91 708 395 
Q 319 881 319 1663 
Q 319 2444 706 2928 
Q 1094 3413 1709 3413 
Q 2094 3413 2355 3264 
Q 2616 3116 2784 2803 
L 2784 3322 
L 3909 3322 
L 3909 2988 
L 3359 2988 
z
M 2784 1825 
Q 2784 2422 2554 2737 
Q 2325 3053 1888 3053 
Q 1444 3053 1217 2703 
Q 991 2353 991 1663 
Q 991 975 1217 622 
Q 1444 269 1888 269 
Q 2325 269 2554 583 
Q 2784 897 2784 1497 
L 2784 1825 
z
" id="DejaVuSerif-67" transform="scale(0.015625)"/>
       <path d="M 1656 4666 
L 2156 4666 
L 500 -594 
L 0 -594 
L 1656 4666 
z
" id="DejaVuSerif-2f" transform="scale(0.015625)"/>
       <path d="M 2988 4666 
L 4684 2925 
L 4206 2925 
L 2681 4116 
L 1159 2925 
L 678 2925 
L 2375 4666 
L 2988 4666 
z
" id="DejaVuSerif-5e" transform="scale(0.015625)"/>
      </defs>
      <use xlink:href="#DejaVuSerif-44"/>
      <use x="80.175781" xlink:href="#DejaVuSerif-65"/>
      <use x="139.355469" xlink:href="#DejaVuSerif-6e"/>
      <use x="203.759766" xlink:href="#DejaVuSerif-73"/>
      <use x="255.078125" xlink:href="#DejaVuSerif-69"/>
      <use x="287.060547" xlink:href="#DejaVuSerif-74"/>
      <use x="327.246094" xlink:href="#DejaVuSerif-79"/>
      <use x="383.740234" xlink:href="#DejaVuSerif-20"/>
      <use x="415.527344" xlink:href="#DejaVuSerif-28"/>
      <use x="454.541016" xlink:href="#DejaVuSerif-6b"/>
      <use x="515.136719" xlink:href="#DejaVuSerif-67"/>
      <use x="579.150391" xlink:href="#DejaVuSerif-2f"/>
      <use x="612.841797" xlink:href="#DejaVuSerif-6d"/>
      <use x="707.666016" xlink:href="#DejaVuSerif-5e"/>
      <use x="791.455078" xlink:href="#DejaVuSerif-33"/>
      <use x="855.078125" xlink:href="#DejaVuSerif-29"/>
     </g>
    </g>
   </g>
   <g id="line2d_29">
    <path clip-path="url(#pb303d9aae2)" d="M 73.832727 295.487998 
L 79.226166 295.408337 
L 79.361637 295.252876 
L 80.863672 295.160336 
L 81.068572 294.810082 
L 81.410636 295.058078 
L 82.230236 294.837798 
L 83.32247 294.051228 
L 83.52737 293.713618 
L 83.662841 293.643393 
L 84.004906 293.899807 
L 84.209805 293.631451 
L 84.550176 293.191374 
L 84.687341 293.185572 
L 84.824505 293.064055 
L 85.164876 293.195922 
L 86.32654 292.213222 
L 88.033474 291.314022 
L 88.441581 290.804305 
L 88.715909 289.950096 
L 89.125709 288.736321 
L 89.808144 287.773453 
L 91.105279 287.305034 
L 93.222013 286.597543 
L 95.611383 285.24089 
L 96.156654 284.697796 
L 96.703618 283.766138 
L 97.590953 281.956281 
L 98.205653 281.285954 
L 98.750923 280.99324 
L 99.502787 280.605511 
L 99.775423 280.24809 
L 100.595022 278.507916 
L 101.959893 276.783141 
L 102.644021 276.17816 
L 103.803991 275.505605 
L 104.486427 275.055436 
L 105.168862 274.684037 
L 106.945225 273.594704 
L 111.519065 270.571695 
L 112.953364 270.023412 
L 116.162333 269.027041 
L 118.277374 268.598975 
L 120.189208 268.428286 
L 121.965572 268.371734 
L 129.133681 267.856758 
L 131.250415 267.856813 
L 132.410385 267.838565 
L 136.371219 267.87368 
L 139.170388 267.738527 
L 140.467523 267.520201 
L 143.949127 267.487386 
L 147.703367 267.648357 
L 149.887837 267.549894 
L 150.912336 267.521235 
L 155.691076 267.20028 
L 161.291108 267.233224 
L 162.928614 266.933472 
L 163.885378 266.669363 
L 165.455148 266.627224 
L 168.869017 266.716175 
L 179.450995 267.404676 
L 182.387329 267.244912 
L 188.668103 266.635546 
L 188.735838 266.75187 
L 188.805267 266.597546 
L 188.940738 262.454453 
L 189.077902 258.897902 
L 189.145638 259.155179 
L 189.418273 251.422457 
L 189.692602 249.389704 
L 189.897502 248.247722 
L 190.375037 242.477999 
L 190.784837 238.545557 
L 191.330108 235.939399 
L 192.149707 229.435949 
L 192.354607 228.265417 
L 194.608506 211.17388 
L 195.018306 208.950015 
L 196.383176 204.18446 
L 196.997876 202.554988 
L 197.270511 201.606601 
L 197.543146 200.912173 
L 197.817475 200.485543 
L 198.29501 199.372126 
L 198.977445 198.273091 
L 199.182345 198.045755 
L 199.592145 197.415455 
L 199.86478 197.270197 
L 201.161915 195.397998 
L 201.571715 195.213386 
L 201.981515 194.937326 
L 202.25415 194.734139 
L 202.66395 194.321525 
L 202.936585 194.371472 
L 203.07375 194.18012 
L 203.210914 193.588095 
L 203.415814 191.160708 
L 203.756185 185.846626 
L 204.02882 185.44386 
L 204.23372 183.632377 
L 204.43862 182.686759 
L 204.712949 182.723435 
L 205.122748 182.018304 
L 205.325955 181.484108 
L 205.530855 180.990847 
L 205.668019 180.978279 
L 206.010083 181.102401 
L 206.145554 180.915751 
L 206.760254 179.411412 
L 206.965154 179.455886 
L 207.237789 179.043326 
L 207.579854 178.647554 
L 208.126818 178.14842 
L 208.739824 177.229304 
L 209.014153 177.033145 
L 210.036959 175.927862 
L 210.379023 175.715306 
L 210.788823 175.397913 
L 211.403522 175.160063 
L 211.813322 174.925963 
L 212.358593 174.860344 
L 212.905557 174.588222 
L 213.450828 174.525723 
L 213.860628 174.396111 
L 214.407592 174.408742 
L 215.635298 173.737023 
L 216.592062 172.552828 
L 218.571631 168.62928 
L 221.9855 160.40258 
L 224.852405 152.341318 
L 226.76424 147.247132 
L 228.608339 142.629355 
L 231.270344 136.539929 
L 234.547048 129.787834 
L 236.323412 126.776657 
L 238.302982 123.981909 
L 240.282552 121.710681 
L 240.897251 121.38562 
L 241.239316 121.061041 
L 242.604186 119.058359 
L 244.038485 117.591145 
L 246.632755 114.515765 
L 248.339689 112.321601 
L 250.591894 109.468691 
L 251.684129 108.413406 
L 252.845793 107.71788 
L 254.278399 107.166101 
L 259.671838 105.783104 
L 261.993472 105.046016 
L 268.684046 103.304148 
L 269.913445 102.927126 
L 270.80078 102.858286 
L 271.21058 103.06061 
L 271.757544 103.709976 
L 272.235079 104.129339 
L 272.849779 104.389006 
L 273.259579 104.286515 
L 273.599949 104.257682 
L 277.765683 105.996582 
L 278.583589 106.503376 
L 278.788489 106.741878 
L 278.857917 106.59727 
L 278.925653 105.1326 
L 279.335453 79.944445 
L 279.608088 78.357204 
L 280.632587 76.461938 
L 281.657087 74.989961 
L 284.796627 71.68006 
L 285.958291 70.936472 
L 286.98279 70.615073 
L 288.075025 70.566416 
L 289.507631 70.73121 
L 290.53213 71.06493 
L 291.214566 71.289479 
L 291.35173 71.095212 
L 291.487201 70.454075 
L 291.624365 68.70297 
L 292.034165 60.694874 
L 292.239065 60.342774 
L 292.376229 60.52687 
L 292.581129 60.741927 
L 292.7166 60.582753 
L 293.058664 59.738532 
L 293.5362 59.636935 
L 293.808835 59.280778 
L 294.150899 59.296773 
L 294.355799 59.237961 
L 294.765599 59.017412 
L 295.243134 59.024766 
L 295.51577 58.9049 
L 295.925569 58.921087 
L 296.267634 58.778678 
L 296.608005 58.708764 
L 297.017804 58.505411 
L 297.359869 58.397325 
L 297.700239 58.18558 
L 298.179468 58.04323 
L 298.519839 57.848532 
L 298.929639 57.744374 
L 299.339438 57.473049 
L 299.681503 57.389679 
L 300.294509 57.012933 
L 300.568838 56.884232 
L 301.046373 56.544643 
L 301.388437 56.41546 
L 301.865973 56.094988 
L 302.275772 55.965161 
L 302.753308 55.730312 
L 303.163107 55.633456 
L 303.572907 55.481927 
L 304.050442 55.412605 
L 304.460242 55.328444 
L 304.937777 55.324025 
L 305.415313 55.302699 
L 305.894541 55.278327 
L 306.372076 55.295185 
L 309.716517 55.538701 
L 310.400645 55.295405 
L 311.218551 55.070598 
L 311.49288 55.117871 
L 311.69778 55.436034 
L 311.970415 56.533194 
L 312.243051 57.468504 
L 312.447951 57.535947 
L 312.585115 57.389104 
L 312.790015 56.615441 
L 313.199815 55.022027 
L 313.47245 54.693689 
L 314.974485 54.073528 
L 317.363854 53.622229 
L 318.660989 53.580385 
L 319.820959 53.807545 
L 321.665058 54.319493 
L 325.761363 54.177813 
L 327.536033 54.519579 
L 329.175232 55.051458 
L 329.925402 55.465793 
L 330.404631 55.699115 
L 332.111565 56.039594 
L 332.794001 56.091881 
L 333.134371 56.183981 
L 333.4087 56.513779 
L 333.816807 57.547408 
L 336.275605 64.760189 
L 337.435576 67.588415 
L 337.709904 67.69457 
L 338.664975 67.492361 
L 339.279674 67.909669 
L 339.894374 67.863967 
L 340.371909 67.944917 
L 341.873944 68.610472 
L 346.312312 72.18342 
L 347.540018 73.189815 
L 349.589017 74.595412 
L 350.953887 75.244276 
L 352.593086 76.000054 
L 353.412686 76.55253 
L 354.232286 77.448635 
L 354.709821 77.863532 
L 355.187356 77.923792 
L 355.52942 77.741555 
L 356.006956 77.555347 
L 357.166926 77.326611 
L 357.986525 76.621204 
L 359.011025 75.830564 
L 359.556296 75.813818 
L 360.717959 76.040591 
L 361.605294 76.502228 
L 362.424894 77.012128 
L 362.629794 76.8639 
L 362.765265 76.358461 
L 362.902429 74.744742 
L 363.312229 67.756069 
L 363.584864 66.88334 
L 363.8575 66.687056 
L 364.881999 66.463461 
L 368.090968 66.085201 
L 369.730167 66.190159 
L 370.890138 66.476678 
L 372.392172 67.100864 
L 374.441171 68.157369 
L 374.918706 68.528304 
L 375.123606 68.502362 
L 375.259077 68.297579 
L 375.463977 67.294304 
L 375.873777 65.101402 
L 376.148106 64.76214 
L 376.488477 64.776031 
L 377.717876 65.097257 
L 378.263147 64.983722 
L 379.42481 64.591657 
L 379.902346 64.592826 
L 380.379881 64.327386 
L 380.789681 63.912301 
L 382.01908 62.182738 
L 382.63378 61.984249 
L 383.38395 61.921421 
L 384.066385 62.029902 
L 385.023149 62.473208 
L 386.047649 63.225794 
L 387.275355 64.374978 
L 388.504754 65.48734 
L 389.119453 65.784605 
L 389.734153 65.841533 
L 390.279424 65.676563 
L 391.031288 65.400448 
L 391.508823 65.500989 
L 393.283493 66.239201 
L 393.898193 66.33236 
L 394.580628 66.687901 
L 394.922692 67.052784 
L 395.263063 67.780188 
L 395.605127 68.334967 
L 395.947192 68.436496 
L 396.152091 68.194213 
L 396.492462 67.737145 
L 396.765098 67.714743 
L 397.789597 68.106818 
L 398.487273 68.301289 
L 398.487273 68.301289 
" style="fill:none;stroke:#1f77b4;stroke-linecap:square;stroke-width:1.5;"/>
   </g>
   <g id="line2d_30">
    <path clip-path="url(#pb303d9aae2)" d="M 73.832727 295.487998 
L 82.843242 295.486586 
L 82.980406 295.224582 
L 84.004906 295.199805 
L 85.71184 295.157402 
L 86.32654 294.680222 
L 86.73634 294.708486 
L 87.144446 294.743775 
L 88.578745 294.281951 
L 89.193445 294.012453 
L 90.08078 293.808903 
L 90.968115 293.20745 
L 91.310179 292.95275 
L 91.924879 292.194011 
L 92.879949 292.511486 
L 93.289749 292.473991 
L 93.836713 292.180722 
L 94.314248 291.672404 
L 95.201583 290.410584 
L 95.543648 290.460652 
L 96.226083 290.582378 
L 96.771353 290.512433 
L 97.453789 290.203172 
L 97.933017 289.753865 
L 98.410552 288.974504 
L 98.955823 288.183766 
L 99.365623 287.988036 
L 100.049752 288.015387 
L 100.662758 288.03938 
L 101.414622 287.777873 
L 102.164792 287.268329 
L 102.644021 286.684939 
L 103.461927 285.569766 
L 104.008891 285.290352 
L 104.418691 285.096584 
L 105.373762 283.892453 
L 106.398261 282.933853 
L 107.080696 282.065037 
L 107.900296 280.720956 
L 108.787631 279.274415 
L 109.334595 278.777442 
L 110.9721 277.757975 
L 113.36147 276.147148 
L 114.590869 274.929426 
L 115.820269 273.340401 
L 116.980239 271.896549 
L 117.732103 271.263571 
L 118.687174 270.711874 
L 119.643938 270.527789 
L 123.125542 270.088762 
L 124.559841 269.58828 
L 125.719812 269.002376 
L 126.469982 268.361782 
L 127.76881 267.217904 
L 128.656145 266.771698 
L 130.225916 266.411649 
L 134.389955 266.156153 
L 135.619355 266.040462 
L 137.668353 265.900373 
L 139.852823 265.745533 
L 141.285429 265.703395 
L 143.676492 265.533974 
L 145.313998 265.251249 
L 147.498467 264.826592 
L 149.274831 264.549859 
L 154.736005 264.304022 
L 156.64784 264.165864 
L 159.174374 263.897445 
L 161.291108 263.652639 
L 163.338413 263.722746 
L 168.664117 264.487898 
L 170.985751 264.742587 
L 175.149791 265.005926 
L 175.217526 265.101373 
L 175.286955 265.008628 
L 175.422426 260.171316 
L 175.696755 251.848985 
L 175.901655 248.172163 
L 176.242026 244.322232 
L 176.99389 236.648625 
L 178.016696 229.747594 
L 178.426496 227.076746 
L 178.631395 226.090897 
L 179.997959 218.489132 
L 180.202859 217.681972 
L 181.225665 212.874102 
L 183.069764 204.644288 
L 184.366899 200.213781 
L 186.006098 196.332782 
L 186.414204 195.72915 
L 187.508132 194.140366 
L 187.848503 193.830385 
L 188.258303 193.209274 
L 188.600367 193.097785 
L 189.077902 192.483173 
L 189.350538 192.324305 
L 189.897502 191.854542 
L 190.442773 191.35285 
L 190.852573 191.006218 
L 191.262372 190.838712 
L 191.877072 190.379509 
L 192.354607 190.217064 
L 192.969307 190.047425 
L 195.153777 189.33379 
L 198.49991 188.272703 
L 199.045181 188.063953 
L 199.522716 187.969054 
L 200.821544 187.419869 
L 201.29908 187.212015 
L 202.04925 186.977853 
L 202.596214 186.894973 
L 204.43862 186.941912 
L 204.84842 186.962351 
L 205.325955 186.988649 
L 205.940655 187.058419 
L 206.897418 187.284158 
L 207.512118 187.241249 
L 208.534924 187.138294 
L 209.423952 187.480163 
L 210.174123 187.379382 
L 210.241859 187.148642 
L 210.379023 185.09371 
L 210.721087 177.877789 
L 210.993723 176.55151 
L 212.018222 174.92658 
L 212.495757 174.703124 
L 212.768393 173.899631 
L 213.041028 173.424257 
L 213.725157 172.767864 
L 214.612492 171.678623 
L 215.022291 171.140158 
L 215.704726 170.440699 
L 216.249997 169.849756 
L 217.821461 168.766864 
L 219.049167 168.349177 
L 219.596131 168.213275 
L 220.073666 168.079279 
L 220.82553 167.93118 
L 223.077735 167.809626 
L 223.760171 167.822448 
L 224.442606 167.919302 
L 226.014069 168.192164 
L 229.973209 169.800306 
L 234.206678 171.44214 
L 235.436077 171.595591 
L 236.800947 171.563153 
L 238.030346 171.307098 
L 239.667852 170.664788 
L 241.852322 169.718383 
L 243.081721 169.429193 
L 244.173956 169.399136 
L 246.018055 169.576973 
L 246.973125 169.833085 
L 247.724989 170.083027 
L 249.227024 169.919147 
L 254.688199 171.020434 
L 258.579603 171.974566 
L 262.062901 172.539423 
L 264.929806 172.167439 
L 267.182011 171.25548 
L 268.20651 170.41387 
L 269.368174 169.184877 
L 269.503645 168.940099 
L 269.571381 168.349525 
L 270.050609 152.562887 
L 270.460409 151.448907 
L 271.142844 150.155496 
L 272.167344 148.708997 
L 273.464478 147.481992 
L 275.034249 146.399565 
L 276.604019 145.662974 
L 278.106053 145.309395 
L 278.720753 145.4203 
L 279.198288 145.765921 
L 280.290523 146.621668 
L 280.837487 146.800502 
L 281.792558 147.008116 
L 282.817057 147.317348 
L 286.708462 148.199978 
L 288.415396 148.490948 
L 290.464395 148.804702 
L 291.96643 148.817001 
L 295.243134 148.73648 
L 297.29044 149.169636 
L 298.724739 149.607465 
L 299.202274 149.690339 
L 299.407174 149.50582 
L 299.544338 148.933405 
L 300.226773 143.659338 
L 300.841473 142.969587 
L 303.298578 140.744239 
L 304.665142 139.577163 
L 316.40709 128.221216 
L 319.275689 125.256534 
L 319.480589 125.312852 
L 320.025859 125.74001 
L 320.367924 125.43457 
L 320.572824 124.990436 
L 321.255259 123.079416 
L 322.279758 121.610177 
L 324.259328 118.718983 
L 327.126233 114.218708 
L 328.287897 112.995247 
L 329.652767 111.546351 
L 332.519672 108.233022 
L 333.4087 107.581376 
L 334.158871 107.314095 
L 335.456006 106.92145 
L 336.75314 106.1949 
L 337.709904 105.762037 
L 338.392339 105.453467 
L 339.96211 104.57559 
L 341.054345 104.227608 
L 341.396409 104.404923 
L 341.806209 104.978359 
L 343.033914 107.41546 
L 346.107413 113.580403 
L 346.722112 113.853524 
L 347.404547 114.188237 
L 348.154718 114.622757 
L 349.793917 115.372984 
L 351.500852 116.329182 
L 352.933457 117.290459 
L 353.685321 118.062744 
L 354.367757 118.827176 
L 354.572656 118.838617 
L 354.709821 118.454422 
L 354.845292 117.053297 
L 355.187356 112.439544 
L 355.392256 111.947751 
L 355.597156 111.931758 
L 356.142427 112.289922 
L 357.576726 113.665237 
L 360.375895 116.850849 
L 361.67303 118.700937 
L 362.629794 120.443234 
L 364.131828 123.370786 
L 366.041969 125.786442 
L 366.726098 126.336086 
L 368.158704 127.377638 
L 370.207703 129.657213 
L 371.162773 130.952296 
L 371.914637 132.341712 
L 372.869708 134.182097 
L 373.416672 134.824393 
L 374.441171 135.572841 
L 380.312145 142.623543 
L 382.01908 144.633482 
L 383.930914 146.439897 
L 384.135814 146.361884 
L 384.340714 145.854578 
L 384.681085 145.048265 
L 384.95372 144.965883 
L 385.500684 145.208533 
L 386.455755 145.692446 
L 387.070455 145.808871 
L 387.95779 145.634297 
L 389.664724 145.396807 
L 391.031288 145.740992 
L 392.328423 146.203947 
L 393.352922 146.820531 
L 394.170828 147.566646 
L 395.195328 148.8942 
L 397.449226 151.816082 
L 398.487273 152.810609 
L 398.487273 152.810609 
" style="fill:none;stroke:#ff7f0e;stroke-linecap:square;stroke-width:1.5;"/>
   </g>
   <g id="line2d_31">
    <path clip-path="url(#pb303d9aae2)" d="M 73.832727 295.487998 
L 84.345276 295.487913 
L 84.482441 295.229171 
L 85.91674 295.212897 
L 88.10121 295.061804 
L 88.715909 294.600991 
L 89.26118 294.727615 
L 90.695479 294.353272 
L 91.242443 294.113127 
L 92.947685 293.600949 
L 93.357484 293.261798 
L 94.041613 292.280114 
L 94.449719 292.433029 
L 95.201583 292.826408 
L 95.543648 292.733159 
L 96.088918 292.393521 
L 96.703618 291.498885 
L 97.863588 291.623004 
L 98.342817 291.462808 
L 98.955823 291.051106 
L 99.912587 289.91696 
L 100.322387 289.916297 
L 101.072558 289.958775 
L 101.687257 289.794904 
L 102.301957 289.342903 
L 102.644021 288.899254 
L 103.257027 287.936716 
L 103.599092 287.809498 
L 104.281527 287.868309 
L 105.033391 287.828857 
L 105.64809 287.584893 
L 106.261097 287.075194 
L 106.535425 286.495275 
L 107.217861 284.535663 
L 107.558231 284.144331 
L 108.105196 283.894961 
L 109.19743 283.402953 
L 110.084765 282.523135 
L 110.836629 281.414088 
L 111.723964 280.005835 
L 112.269235 279.582429 
L 113.97617 278.842791 
L 114.863505 278.15987 
L 115.820269 277.17038 
L 116.570439 276.161774 
L 117.867574 274.283367 
L 118.346803 273.931793 
L 119.029238 273.711274 
L 120.803908 273.323555 
L 121.555772 272.937748 
L 123.262706 271.74395 
L 124.354941 270.718761 
L 125.105112 270.223272 
L 125.787547 270.030668 
L 127.426746 269.902366 
L 129.133681 269.658612 
L 129.95328 269.270621 
L 131.113251 268.429303 
L 132.820185 267.104312 
L 133.70752 266.81978 
L 135.141819 266.677188 
L 137.326289 266.45891 
L 139.033224 266.064952 
L 142.037293 265.188046 
L 144.426663 264.753387 
L 147.088668 264.555797 
L 151.389872 264.239241 
L 154.326206 264.053726 
L 155.965405 263.806552 
L 159.174374 263.020846 
L 162.860878 262.200953 
L 164.295177 262.109766 
L 166.684547 262.238944 
L 169.073917 262.568185 
L 169.278817 262.728997 
L 169.346552 261.88871 
L 169.756352 246.982422 
L 170.028987 243.376296 
L 170.166152 242.364123 
L 170.643687 236.878326 
L 170.780851 235.737409 
L 171.121222 232.773738 
L 172.213457 226.056151 
L 172.418357 225.059473 
L 172.828157 222.60416 
L 173.375121 220.071744 
L 173.715492 218.430315 
L 173.920392 217.69858 
L 174.877155 213.41582 
L 175.422426 211.503405 
L 175.76449 210.356995 
L 178.15386 203.741238 
L 181.225665 195.555543 
L 182.592229 192.850813 
L 183.069764 192.167655 
L 183.684464 191.207729 
L 186.278733 188.475925 
L 186.688533 188.275145 
L 187.303232 187.914054 
L 187.848503 187.707597 
L 188.190567 187.673468 
L 188.668103 187.647934 
L 189.350538 187.574794 
L 189.897502 187.682803 
L 190.307302 187.684678 
L 191.125208 187.854289 
L 191.535008 187.814523 
L 192.081972 187.945424 
L 192.696671 187.990451 
L 193.719477 188.12233 
L 194.198706 188.13161 
L 194.608506 188.216525 
L 195.563576 188.171723 
L 196.178276 188.201231 
L 196.792976 188.068889 
L 200.957015 187.279497 
L 202.391314 186.920587 
L 203.210914 186.841846 
L 206.555354 186.133937 
L 210.856558 185.492053 
L 211.813322 185.109853 
L 212.290857 185.263751 
L 212.905557 185.407575 
L 213.383092 185.408813 
L 213.450828 185.328826 
L 213.520257 185.072264 
L 213.655728 182.560069 
L 213.930056 175.351989 
L 214.202692 174.377478 
L 215.022291 173.207179 
L 215.499827 173.01902 
L 216.114526 172.06751 
L 217.342232 171.443568 
L 217.956932 170.863569 
L 218.639367 170.433553 
L 219.118596 170.079767 
L 220.756101 169.501312 
L 221.575701 169.399015 
L 222.122665 169.404414 
L 223.4198 169.33118 
L 224.034499 169.346325 
L 225.19447 169.325992 
L 226.96914 169.32281 
L 227.583839 169.34276 
L 228.813239 169.429419 
L 230.997708 169.661894 
L 232.157679 169.718162 
L 233.454814 169.709838 
L 235.913612 169.416433 
L 239.053152 168.759751 
L 240.419716 168.683286 
L 245.675991 168.950323 
L 249.49966 169.707234 
L 250.65963 170.122498 
L 251.616394 169.990468 
L 253.663699 170.142718 
L 254.960834 170.099694 
L 256.667769 170.078538 
L 258.716767 170.179194 
L 259.809002 170.319219 
L 260.968973 170.73469 
L 263.768142 172.002681 
L 265.679976 173.270414 
L 265.954305 173.486809 
L 266.022041 173.338 
L 266.089776 171.921228 
L 266.364105 159.596969 
L 266.569005 158.738712 
L 267.25144 157.363866 
L 267.933875 156.488573 
L 268.958375 155.557964 
L 271.757544 153.529727 
L 274.351813 151.470714 
L 275.376313 150.968533 
L 276.468548 150.732498 
L 278.175482 150.641866 
L 280.222788 150.791249 
L 281.382758 151.011642 
L 281.997458 151.343382 
L 283.704392 152.580211 
L 286.845626 153.135011 
L 288.279925 153.174274 
L 289.712531 152.995493 
L 291.214566 152.832232 
L 293.468464 152.920593 
L 301.593337 153.468724 
L 302.138608 153.511549 
L 302.411243 153.378114 
L 302.548408 153.089847 
L 302.685572 152.221021 
L 303.095372 148.15148 
L 303.368007 147.567276 
L 303.845542 147.180134 
L 304.595713 146.860047 
L 305.620212 146.71398 
L 315.179385 146.425564 
L 319.41116 146.414375 
L 320.708294 146.211993 
L 322.347494 145.866489 
L 322.620129 146.154426 
L 322.962193 146.484521 
L 323.234829 146.453852 
L 323.576893 146.169259 
L 324.396492 145.018552 
L 325.078927 144.80237 
L 327.058497 144.460704 
L 329.038067 144.327187 
L 329.857667 144.47453 
L 330.540102 144.804926 
L 332.451936 145.961398 
L 333.476436 146.114476 
L 335.456006 146.448431 
L 339.894374 147.512597 
L 340.986609 147.964127 
L 341.806209 148.214161 
L 342.829015 148.533107 
L 344.400478 149.32521 
L 344.878013 149.958675 
L 349.451853 157.233071 
L 351.158787 158.391858 
L 351.363687 158.318357 
L 351.500852 157.77436 
L 352.115551 152.905997 
L 352.455922 152.637899 
L 354.027386 151.76258 
L 356.006956 150.38727 
L 356.689391 150.227929 
L 357.50899 150.285757 
L 359.011025 150.424281 
L 362.28773 150.297033 
L 366.111398 150.509516 
L 367.271369 150.787084 
L 368.910568 150.644973 
L 369.525267 150.818898 
L 370.002803 150.646267 
L 370.412602 150.246884 
L 371.437102 148.951989 
L 372.255008 148.556214 
L 373.689307 148.057665 
L 374.849278 147.861022 
L 375.873777 147.893047 
L 377.240341 148.167257 
L 378.877846 148.448357 
L 380.312145 148.415457 
L 382.496615 148.444041 
L 384.066385 148.708329 
L 386.525184 149.368753 
L 387.139884 149.585686 
L 387.412519 149.495715 
L 387.617419 149.066792 
L 388.094954 147.708244 
L 388.367589 147.527745 
L 388.914554 147.521532 
L 390.143953 147.565872 
L 390.826388 147.339817 
L 391.508823 147.217914 
L 392.328423 147.302061 
L 393.010858 147.621844 
L 394.035357 148.391713 
L 395.400227 149.699397 
L 396.765098 151.325773 
L 398.487273 153.556103 
L 398.487273 153.556103 
" style="fill:none;stroke:#2ca02c;stroke-linecap:square;stroke-width:1.5;"/>
   </g>
   <g id="line2d_32">
    <path clip-path="url(#pb303d9aae2)" d="M 73.832727 295.487998 
L 86.12164 295.487429 
L 86.257111 295.240537 
L 90.627744 295.097939 
L 91.037544 294.801108 
L 91.44565 294.574525 
L 91.787714 294.589466 
L 92.402414 294.600229 
L 93.152585 294.374247 
L 95.064419 293.703286 
L 95.543648 293.259438 
L 96.088918 293.214365 
L 97.523217 293.084127 
L 97.863588 292.841941 
L 98.342817 292.384794 
L 98.955823 292.546274 
L 99.435052 292.632937 
L 99.912587 292.498792 
L 100.322387 292.244804 
L 100.662758 291.68431 
L 100.937087 291.413279 
L 101.277457 291.449501 
L 102.029321 291.545114 
L 102.506857 291.363379 
L 102.984392 291.042887 
L 103.871727 290.10035 
L 104.486427 290.19923 
L 105.033391 290.199977 
L 105.64809 289.968519 
L 106.193361 289.55335 
L 107.150125 288.496873 
L 107.62766 288.545971 
L 108.377831 288.58308 
L 108.719895 288.446214 
L 108.924795 288.185874 
L 110.357401 285.278953 
L 110.699465 285.050492 
L 111.314165 284.989181 
L 111.859435 284.820069 
L 112.4064 284.391954 
L 113.088835 283.495578 
L 113.97617 282.164262 
L 114.590869 281.781523 
L 116.434968 280.881754 
L 117.185139 280.104091 
L 118.209638 278.709267 
L 118.892074 277.950121 
L 119.643938 277.558184 
L 121.008808 277.007113 
L 121.828407 276.298692 
L 122.648007 275.301067 
L 123.535342 274.291829 
L 124.150041 273.993698 
L 125.105112 273.905256 
L 125.992447 273.773824 
L 126.879782 273.350839 
L 127.699382 272.722874 
L 129.201416 271.509743 
L 129.883851 271.339965 
L 131.865115 271.087491 
L 133.367149 270.265512 
L 135.209555 268.942771 
L 136.029154 268.820121 
L 137.531189 268.679104 
L 138.623424 268.314804 
L 140.262623 267.334405 
L 141.285429 266.723504 
L 142.105028 266.479209 
L 142.992363 266.493271 
L 144.904198 266.579581 
L 146.201333 266.39278 
L 147.225832 266.062825 
L 149.000502 265.515387 
L 150.912336 265.261826 
L 154.87317 264.697702 
L 157.125375 264.085724 
L 158.900045 263.62253 
L 161.836379 263.121508 
L 161.904114 263.260633 
L 161.973543 262.943275 
L 162.518814 245.931595 
L 162.655978 244.5608 
L 163.680478 233.866521 
L 165.045348 224.725038 
L 165.387412 223.363752 
L 166.069847 219.854865 
L 166.342483 218.668712 
L 167.024918 215.419285 
L 168.869017 207.719204 
L 169.483716 205.963234 
L 170.166152 204.178991 
L 171.053487 202.400407 
L 171.463286 201.645066 
L 172.828157 199.648126 
L 173.170221 199.168517 
L 173.510592 198.565578 
L 173.784921 198.391713 
L 174.535091 197.22317 
L 174.739991 197.025425 
L 175.286955 196.200045 
L 176.037126 195.264507 
L 177.061625 193.96119 
L 177.471425 193.605814 
L 177.881225 193.207955 
L 178.76856 192.484232 
L 179.313831 192.194044 
L 180.202859 191.5742 
L 181.295094 190.897202 
L 181.635465 190.736606 
L 181.909793 190.649459 
L 182.659964 190.162199 
L 184.094263 189.493194 
L 190.375037 187.552183 
L 191.467272 187.344524 
L 192.217443 187.260764 
L 192.764407 187.15899 
L 193.311371 187.145315 
L 193.856642 187.142707 
L 194.334177 187.153591 
L 195.018306 187.229491 
L 195.563576 187.231451 
L 196.178276 187.297287 
L 201.63945 187.62584 
L 202.66395 187.376998 
L 205.395384 186.437684 
L 208.467189 184.874788 
L 209.764323 184.574621 
L 210.993723 184.770531 
L 213.245928 185.316239 
L 214.612492 186.024646 
L 216.114526 186.579212 
L 217.001861 187.24474 
L 217.274497 187.269355 
L 217.342232 186.938402 
L 217.479397 182.887777 
L 217.684296 177.288102 
L 217.889196 176.532936 
L 218.434467 175.762413 
L 218.981431 175.546256 
L 219.596131 174.736072 
L 220.141402 174.495851 
L 220.82553 174.081923 
L 221.303065 173.598225 
L 222.053236 173.04232 
L 222.6002 172.63447 
L 224.102235 171.901903 
L 224.852405 171.653948 
L 225.331634 171.527549 
L 226.286705 171.217183 
L 227.516104 170.738919 
L 231.885043 168.446986 
L 233.045014 167.930526 
L 234.411577 167.561678 
L 235.708712 167.525066 
L 236.938112 167.733755 
L 238.165817 168.066969 
L 241.169887 168.855825 
L 243.833585 169.227359 
L 246.563326 169.380435 
L 250.796794 169.35447 
L 252.503729 169.336992 
L 254.073499 169.407419 
L 254.757627 169.136721 
L 255.440063 169.115036 
L 256.532298 169.322787 
L 259.741267 170.291474 
L 261.243301 171.267559 
L 261.788572 171.675689 
L 261.858001 171.538398 
L 261.925737 170.155432 
L 262.198372 158.326105 
L 262.471007 157.143749 
L 263.427771 155.308454 
L 264.247371 154.363089 
L 265.475077 153.390075 
L 266.569005 152.808328 
L 268.343675 152.142618 
L 270.59588 151.56014 
L 272.712614 151.211872 
L 275.511784 150.83282 
L 279.267717 149.977826 
L 281.587658 150.030119 
L 285.480756 150.288404 
L 286.368091 150.834453 
L 287.118261 151.143206 
L 288.075025 151.168193 
L 289.302731 151.324937 
L 295.448034 151.851893 
L 296.745169 151.894789 
L 298.861903 151.929933 
L 301.796544 151.931063 
L 303.982707 152.338686 
L 305.962277 152.702362 
L 306.097748 152.505558 
L 306.234912 151.855484 
L 306.781876 147.139881 
L 307.122247 146.695801 
L 307.804682 146.27719 
L 308.898611 145.929026 
L 312.790015 145.305396 
L 316.271619 144.827918 
L 317.568754 144.408222 
L 320.230759 143.38685 
L 321.937694 143.108221 
L 324.259328 142.91598 
L 325.351563 142.939217 
L 325.693627 143.114619 
L 326.033998 143.584455 
L 326.443798 144.164088 
L 326.853597 144.341927 
L 327.126233 144.228684 
L 327.605462 143.812432 
L 328.082997 143.858405 
L 329.515603 144.093116 
L 334.091135 144.588228 
L 335.865805 144.823092 
L 338.597239 144.88963 
L 340.781709 145.246177 
L 343.033914 145.839561 
L 344.058414 146.304683 
L 345.628184 147.114531 
L 346.517212 147.709386 
L 347.744918 148.530981 
L 347.882083 148.099642 
L 348.496782 143.625361 
L 348.701682 143.704592 
L 349.246953 144.270458 
L 350.681252 146.165991 
L 352.593086 148.52126 
L 353.002886 148.753436 
L 353.548157 148.759268 
L 358.191425 148.021169 
L 361.67303 147.928223 
L 365.359534 148.708615 
L 366.656669 149.484036 
L 367.066469 149.418077 
L 368.228133 148.83372 
L 369.250939 148.844399 
L 370.207703 149.056556 
L 371.095038 149.28732 
L 371.709737 149.164649 
L 374.304007 148.11775 
L 375.259077 147.500703 
L 376.966012 146.875753 
L 378.195411 146.661626 
L 379.355381 146.699968 
L 381.131745 147.032133 
L 387.344783 148.514616 
L 388.027219 148.978162 
L 389.051718 150.031303 
L 391.303923 152.415998 
L 391.441088 152.307858 
L 392.055787 151.276001 
L 392.328423 151.409804 
L 393.215758 152.273507 
L 394.103093 152.985895 
L 394.650057 153.138065 
L 395.332492 153.098859 
L 396.834527 152.823777 
L 398.262052 153.033074 
L 398.487273 153.081703 
L 398.487273 153.081703 
" style="fill:none;stroke:#d62728;stroke-linecap:square;stroke-width:1.5;"/>
   </g>
   <g id="line2d_33">
    <path clip-path="url(#pb303d9aae2)" d="M 73.832727 295.487998 
L 89.46608 295.447764 
L 89.603244 295.231281 
L 92.879949 295.221594 
L 95.338748 295.096842 
L 95.884018 294.809345 
L 96.293818 294.515352 
L 96.840782 294.495981 
L 97.863588 294.427297 
L 100.322387 293.862431 
L 101.141986 293.646571 
L 101.551786 293.377967 
L 101.959893 293.116336 
L 102.301957 293.200619 
L 102.984392 293.304051 
L 103.599092 293.204704 
L 103.871727 293.017281 
L 104.213791 292.757533 
L 104.623591 292.78595 
L 105.373762 292.856083 
L 105.920726 292.652465 
L 106.261097 292.371638 
L 106.603161 292.082415 
L 106.875796 292.110426 
L 107.558231 292.26866 
L 108.03746 292.144934 
L 108.514995 291.790224 
L 108.992531 291.321752 
L 109.334595 291.325448 
L 110.22193 291.398612 
L 110.699465 291.145823 
L 111.246429 290.6166 
L 111.656229 290.288595 
L 112.133764 290.231365 
L 112.883935 290.239688 
L 113.158264 290.034429 
L 114.455398 287.788276 
L 114.863505 287.652322 
L 115.547633 287.495414 
L 115.957433 287.176116 
L 116.502704 286.41217 
L 116.980239 285.866547 
L 117.390039 285.710989 
L 118.277374 285.601355 
L 118.756603 285.205526 
L 119.369609 284.32128 
L 119.916573 283.659132 
L 120.666744 283.220243 
L 121.760672 282.639699 
L 122.305943 282.032577 
L 123.193278 280.95428 
L 123.945142 280.641253 
L 124.832477 280.319189 
L 125.582647 279.813702 
L 126.334511 279.020141 
L 126.949211 278.459604 
L 127.631646 278.211119 
L 128.928781 277.903225 
L 129.54348 277.431896 
L 130.77288 276.425228 
L 131.590786 276.233386 
L 132.887921 276.024461 
L 133.70752 275.471981 
L 134.799755 274.731124 
L 137.258554 273.990123 
L 139.100959 272.670184 
L 140.057723 272.489458 
L 140.945058 272.237159 
L 141.695229 271.784942 
L 143.334428 270.707757 
L 144.016863 270.60157 
L 145.246262 270.401457 
L 146.065862 269.985571 
L 146.953197 269.505582 
L 147.088668 269.448763 
L 147.158097 268.854185 
L 147.772796 255.702764 
L 148.932767 248.123844 
L 149.547466 243.431698 
L 150.229901 239.781559 
L 150.912336 236.510057 
L 151.594772 233.657374 
L 151.799672 232.54745 
L 152.346636 229.480435 
L 152.6887 227.788714 
L 153.371135 224.304535 
L 153.711506 222.742355 
L 154.121306 220.983473 
L 156.715575 212.131033 
L 157.944975 208.822005 
L 159.514745 205.509701 
L 161.358844 202.48535 
L 162.178443 201.335971 
L 163.065778 200.29602 
L 164.225748 199.165897 
L 164.635548 198.813044 
L 166.000419 197.700294 
L 166.889447 196.868596 
L 168.664117 195.290499 
L 169.209388 194.802163 
L 171.873086 192.343094 
L 172.760421 191.866176 
L 173.784921 191.444483 
L 175.082055 191.184025 
L 177.40369 191.390703 
L 178.016696 191.64067 
L 182.3179 193.457699 
L 184.776698 194.011386 
L 186.619104 194.073772 
L 187.985668 194.066099 
L 189.760338 193.964736 
L 191.262372 193.655539 
L 192.696671 193.19739 
L 196.450911 191.619712 
L 199.387245 190.494347 
L 201.434551 190.118823 
L 204.508049 190.541937 
L 206.282719 190.988484 
L 207.170054 191.387012 
L 208.126818 191.723271 
L 210.106388 192.318575 
L 212.836128 192.831242 
L 213.930056 193.00656 
L 214.817391 193.166096 
L 217.274497 193.404126 
L 218.434467 193.67369 
L 221.780601 193.974736 
L 222.667936 193.732114 
L 223.350371 193.697438 
L 224.034499 193.680445 
L 224.16997 193.426886 
L 224.239399 192.557734 
L 224.57977 183.16944 
L 224.852405 182.584758 
L 225.39937 181.809424 
L 225.876905 180.854944 
L 228.880974 177.365536 
L 229.768309 176.712167 
L 230.520173 176.30989 
L 235.845877 174.375553 
L 236.733212 174.202142 
L 238.165817 174.038874 
L 239.942181 173.843447 
L 243.969056 173.27178 
L 245.74542 173.10017 
L 247.31519 172.929647 
L 248.612324 173.070999 
L 251.001694 173.401597 
L 252.298829 173.872306 
L 253.938028 174.602036 
L 254.005763 174.440777 
L 254.073499 173.238107 
L 254.347828 162.2901 
L 254.620463 161.176837 
L 256.259662 158.021801 
L 257.214733 156.874046 
L 258.853932 155.436595 
L 259.604102 155.090682 
L 260.151066 154.772743 
L 261.515937 153.737458 
L 262.950236 153.165311 
L 264.929806 152.655209 
L 266.499576 152.492949 
L 268.071039 152.557941 
L 270.59588 152.93449 
L 276.468548 154.076177 
L 278.106053 154.10351 
L 280.155052 153.900626 
L 282.339522 153.543544 
L 286.163191 152.567386 
L 288.347661 152.515643 
L 289.439896 152.375088 
L 291.283994 152.448041 
L 292.101901 152.670242 
L 292.853765 153.165903 
L 293.7411 153.676827 
L 294.560699 153.829424 
L 296.130469 154.133868 
L 305.210413 155.686342 
L 310.058581 156.00643 
L 311.218551 155.817927 
L 312.515686 155.430771 
L 312.720586 155.201593 
L 312.85775 154.74571 
L 313.06265 152.453599 
L 313.335286 149.98282 
L 313.607921 149.357463 
L 314.08715 148.937448 
L 314.974485 148.526608 
L 316.40709 148.129979 
L 319.548324 147.381091 
L 320.230759 147.539814 
L 321.597323 147.934209 
L 322.825029 147.96217 
L 331.906666 147.942858 
L 332.247036 148.208537 
L 332.861736 148.82801 
L 333.271536 148.840214 
L 333.476436 148.68345 
L 334.226606 147.794039 
L 334.910735 147.60655 
L 336.617669 147.433126 
L 338.119704 147.558871 
L 339.416839 147.90602 
L 340.713974 148.379306 
L 340.849445 148.15133 
L 340.986609 147.267718 
L 341.396409 142.943192 
L 341.669044 142.377488 
L 342.146579 142.001655 
L 343.718043 141.178072 
L 345.697613 140.454013 
L 347.267383 140.113192 
L 349.042053 139.979911 
L 350.408617 140.080685 
L 352.251022 140.316883 
L 353.343257 140.57884 
L 354.232286 140.941839 
L 354.777556 141.451477 
L 355.664891 142.721892 
L 357.166926 144.773105 
L 359.07876 147.217968 
L 360.035524 148.830124 
L 360.443631 149.082299 
L 360.785695 149.05829 
L 361.605294 148.752895 
L 363.926929 148.831709 
L 366.930998 148.611559 
L 367.953804 148.817279 
L 370.139967 149.365271 
L 372.255008 149.723094 
L 375.054177 150.464944 
L 376.625641 151.116694 
L 377.580711 151.755174 
L 378.400311 152.251099 
L 379.082746 152.318207 
L 382.22398 152.0865 
L 382.838679 152.457833 
L 384.40845 153.753238 
L 386.047649 155.401773 
L 389.051718 158.581929 
L 390.894123 159.547276 
L 392.805958 160.264985 
L 394.650057 160.730457 
L 396.424727 161.184858 
L 397.654126 161.738838 
L 398.20617 161.885798 
L 398.428004 161.732318 
L 398.487273 161.63454 
L 398.487273 161.63454 
" style="fill:none;stroke:#9467bd;stroke-linecap:square;stroke-width:1.5;"/>
   </g>
   <g id="line2d_34">
    <path clip-path="url(#pb303d9aae2)" d="M 73.832727 295.487998 
L 96.635882 295.487802 
L 96.771353 295.239675 
L 98.273388 295.226602 
L 98.342817 295.162034 
L 98.478288 294.819169 
L 99.160723 294.77304 
L 103.189292 294.511361 
L 105.373762 294.181804 
L 106.603161 294.055302 
L 107.558231 293.879203 
L 107.695396 293.77424 
L 107.763131 293.542078 
L 108.377831 288.317644 
L 109.060266 286.209322 
L 109.539495 285.345495 
L 109.744395 285.364303 
L 110.154194 285.76112 
L 110.42683 285.659996 
L 110.699465 285.822597 
L 110.904365 285.46002 
L 111.519065 284.110348 
L 111.7917 283.923673 
L 112.064335 283.744268 
L 112.4064 283.468966 
L 112.748464 283.31111 
L 113.158264 283.09498 
L 113.56637 282.906951 
L 116.502704 281.029384 
L 118.687174 279.787525 
L 119.984308 279.265933 
L 122.168778 278.430488 
L 122.715742 278.07939 
L 122.920642 277.582079 
L 123.193278 276.815555 
L 124.490412 275.196555 
L 124.695312 274.426776 
L 124.967948 273.517502 
L 126.061876 272.074162 
L 127.563911 270.404792 
L 129.816116 267.906387 
L 133.162249 263.55867 
L 134.594855 261.878422 
L 136.166319 260.398856 
L 137.531189 259.409069 
L 140.125459 257.897491 
L 141.900129 257.098024 
L 143.744227 256.5704 
L 148.590702 255.567863 
L 150.912336 255.261718 
L 154.736005 254.18989 
L 156.170304 253.733511 
L 157.877239 253.409037 
L 160.40208 253.104894 
L 161.904114 253.075125 
L 163.406149 253.186825 
L 169.414288 253.697568 
L 180.74813 252.695376 
L 182.797128 252.321873 
L 184.571799 251.839779 
L 186.824004 251.21896 
L 188.121139 251.092368 
L 189.897502 251.142929 
L 192.014236 251.450567 
L 194.129277 251.962676 
L 199.454981 253.331618 
L 203.620714 253.91269 
L 205.530855 253.864083 
L 207.307218 253.586685 
L 209.491688 253.020571 
L 212.153693 252.335511 
L 213.450828 252.229009 
L 214.952862 252.283419 
L 217.821461 252.569162 
L 223.760171 253.159889 
L 225.876905 253.120477 
L 230.178109 252.704224 
L 231.680144 252.612388 
L 233.796878 252.699219 
L 236.458883 252.98562 
L 237.278482 253.056115 
L 237.347911 252.883447 
L 237.688282 249.17589 
L 238.849946 246.189458 
L 238.985417 243.520104 
L 239.190317 241.446853 
L 239.805016 240.152802 
L 242.057222 236.370981 
L 243.013986 235.309515 
L 243.901321 234.547773 
L 245.403355 233.555663 
L 246.973125 232.788074 
L 248.68006 232.174908 
L 250.251524 231.821827 
L 251.616394 231.706972 
L 253.323328 231.751042 
L 256.122498 232.043758 
L 261.515937 232.671764 
L 263.837571 232.712127 
L 271.825279 232.544923 
L 274.556713 232.626013 
L 278.378689 232.543815 
L 282.202358 232.670269 
L 286.093762 233.060448 
L 290.874195 233.507544 
L 294.628435 233.604013 
L 296.198205 233.43973 
L 297.837404 233.016808 
L 299.816974 232.548946 
L 301.865973 232.337223 
L 304.460242 232.280443 
L 305.552477 232.430423 
L 307.396576 233.012217 
L 308.829182 233.361176 
L 312.310786 233.804123 
L 319.548324 234.310896 
L 324.122164 234.598449 
L 325.693627 234.683407 
L 325.829098 234.558577 
L 325.966262 234.124886 
L 326.308327 232.773225 
L 326.853597 232.137077 
L 327.263397 231.466026 
L 327.468297 230.490344 
L 327.740933 229.157435 
L 328.082997 228.711838 
L 328.902596 228.141793 
L 330.335202 227.427908 
L 332.316465 226.65719 
L 334.363771 226.100816 
L 336.820876 225.702964 
L 339.34741 225.531681 
L 344.400478 225.420729 
L 345.082913 225.575486 
L 345.765348 225.752752 
L 346.927012 225.746916 
L 347.814347 225.496196 
L 348.701682 225.126594 
L 350.203717 224.945484 
L 352.797986 224.830764 
L 358.668961 224.856811 
L 360.922859 224.952966 
L 363.312229 225.271575 
L 367.544004 226.178353 
L 368.433033 226.676911 
L 369.455839 227.51766 
L 371.845208 229.974821 
L 374.099107 232.112338 
L 375.259077 232.842396 
L 376.283577 233.225589 
L 378.605211 233.765883 
L 380.517045 233.959372 
L 382.838679 234.20303 
L 386.115384 234.954991 
L 393.693293 236.571292 
L 394.650057 236.532916 
L 396.834527 236.010993 
L 397.994497 235.775068 
L 398.487273 235.724124 
L 398.487273 235.724124 
" style="fill:none;stroke:#8c564b;stroke-linecap:square;stroke-width:1.5;"/>
   </g>
   <g id="patch_3">
    <path d="M 57.6 307.584 
L 57.6 41.472 
" style="fill:none;stroke:#000000;stroke-linecap:square;stroke-linejoin:miter;stroke-width:0.8;"/>
   </g>
   <g id="patch_4">
    <path d="M 414.72 307.584 
L 414.72 41.472 
" style="fill:none;stroke:#000000;stroke-linecap:square;stroke-linejoin:miter;stroke-width:0.8;"/>
   </g>
   <g id="patch_5">
    <path d="M 57.6 307.584 
L 414.72 307.584 
" style="fill:none;stroke:#000000;stroke-linecap:square;stroke-linejoin:miter;stroke-width:0.8;"/>
   </g>
   <g id="patch_6">
    <path d="M 57.6 41.472 
L 414.72 41.472 
" style="fill:none;stroke:#000000;stroke-linecap:square;stroke-linejoin:miter;stroke-width:0.8;"/>
   </g>
  </g>
  <g id="legend_1">
   <g id="patch_7">
    <path d="M 99.16 165.18875 
L 157.405313 165.18875 
Q 159.405313 165.18875 159.405313 163.18875 
L 159.405313 76.12 
Q 159.405313 74.12 157.405313 74.12 
L 99.16 74.12 
Q 97.16 74.12 97.16 76.12 
L 97.16 163.18875 
Q 97.16 165.18875 99.16 165.18875 
z
" style="fill:#ffffff;opacity:0.8;stroke:#cccccc;stroke-linejoin:miter;"/>
   </g>
   <g id="line2d_35">
    <path d="M 101.16 82.218437 
L 121.16 82.218437 
" style="fill:none;stroke:#1f77b4;stroke-linecap:square;stroke-width:1.5;"/>
   </g>
   <g id="line2d_36"/>
   <g id="text_17">
    <!-- TS00 -->
    <g transform="translate(129.16 85.718437)scale(0.1 -0.1)">
     <defs>
      <path d="M 594 225 
L 594 1288 
L 953 1284 
Q 969 753 1261 498 
Q 1553 244 2150 244 
Q 2706 244 2998 464 
Q 3291 684 3291 1106 
Q 3291 1444 3114 1625 
Q 2938 1806 2369 1978 
L 1753 2163 
Q 1084 2366 811 2669 
Q 538 2972 538 3500 
Q 538 4094 959 4422 
Q 1381 4750 2144 4750 
Q 2469 4750 2856 4679 
Q 3244 4609 3681 4475 
L 3681 3481 
L 3328 3481 
Q 3275 3975 2998 4195 
Q 2722 4416 2156 4416 
Q 1663 4416 1405 4214 
Q 1147 4013 1147 3628 
Q 1147 3294 1340 3103 
Q 1534 2913 2163 2725 
L 2741 2553 
Q 3375 2363 3645 2067 
Q 3916 1772 3916 1275 
Q 3916 597 3481 253 
Q 3047 -91 2188 -91 
Q 1803 -91 1404 -12 
Q 1006 66 594 225 
z
" id="DejaVuSerif-53" transform="scale(0.015625)"/>
     </defs>
     <use xlink:href="#DejaVuSerif-54"/>
     <use x="66.699219" xlink:href="#DejaVuSerif-53"/>
     <use x="135.205078" xlink:href="#DejaVuSerif-30"/>
     <use x="198.828125" xlink:href="#DejaVuSerif-30"/>
    </g>
   </g>
   <g id="line2d_37">
    <path d="M 101.16 96.896562 
L 121.16 96.896562 
" style="fill:none;stroke:#ff7f0e;stroke-linecap:square;stroke-width:1.5;"/>
   </g>
   <g id="line2d_38"/>
   <g id="text_18">
    <!-- TS01 -->
    <g transform="translate(129.16 100.396562)scale(0.1 -0.1)">
     <use xlink:href="#DejaVuSerif-54"/>
     <use x="66.699219" xlink:href="#DejaVuSerif-53"/>
     <use x="135.205078" xlink:href="#DejaVuSerif-30"/>
     <use x="198.828125" xlink:href="#DejaVuSerif-31"/>
    </g>
   </g>
   <g id="line2d_39">
    <path d="M 101.16 111.574687 
L 121.16 111.574687 
" style="fill:none;stroke:#2ca02c;stroke-linecap:square;stroke-width:1.5;"/>
   </g>
   <g id="line2d_40"/>
   <g id="text_19">
    <!-- TS02 -->
    <g transform="translate(129.16 115.074687)scale(0.1 -0.1)">
     <use xlink:href="#DejaVuSerif-54"/>
     <use x="66.699219" xlink:href="#DejaVuSerif-53"/>
     <use x="135.205078" xlink:href="#DejaVuSerif-30"/>
     <use x="198.828125" xlink:href="#DejaVuSerif-32"/>
    </g>
   </g>
   <g id="line2d_41">
    <path d="M 101.16 126.252813 
L 121.16 126.252813 
" style="fill:none;stroke:#d62728;stroke-linecap:square;stroke-width:1.5;"/>
   </g>
   <g id="line2d_42"/>
   <g id="text_20">
    <!-- TS03 -->
    <g transform="translate(129.16 129.752813)scale(0.1 -0.1)">
     <use xlink:href="#DejaVuSerif-54"/>
     <use x="66.699219" xlink:href="#DejaVuSerif-53"/>
     <use x="135.205078" xlink:href="#DejaVuSerif-30"/>
     <use x="198.828125" xlink:href="#DejaVuSerif-33"/>
    </g>
   </g>
   <g id="line2d_43">
    <path d="M 101.16 140.930937 
L 121.16 140.930937 
" style="fill:none;stroke:#9467bd;stroke-linecap:square;stroke-width:1.5;"/>
   </g>
   <g id="line2d_44"/>
   <g id="text_21">
    <!-- TS04 -->
    <g transform="translate(129.16 144.430937)scale(0.1 -0.1)">
     <use xlink:href="#DejaVuSerif-54"/>
     <use x="66.699219" xlink:href="#DejaVuSerif-53"/>
     <use x="135.205078" xlink:href="#DejaVuSerif-30"/>
     <use x="198.828125" xlink:href="#DejaVuSerif-34"/>
    </g>
   </g>
   <g id="line2d_45">
    <path d="M 101.16 155.609062 
L 121.16 155.609062 
" style="fill:none;stroke:#8c564b;stroke-linecap:square;stroke-width:1.5;"/>
   </g>
   <g id="line2d_46"/>
   <g id="text_22">
    <!-- TS05 -->
    <g transform="translate(129.16 159.109062)scale(0.1 -0.1)">
     <use xlink:href="#DejaVuSerif-54"/>
     <use x="66.699219" xlink:href="#DejaVuSerif-53"/>
     <use x="135.205078" xlink:href="#DejaVuSerif-30"/>
     <use x="198.828125" xlink:href="#DejaVuSerif-35"/>
    </g>
   </g>
  </g>
 </g>
 <defs>
  <clipPath id="pb303d9aae2">
   <rect height="266.112" width="357.12" x="57.6" y="41.472"/>
  </clipPath>
 </defs>
</svg>
